<?xml version="1.0" standalone="no"?>
<svg xmlns="http://www.w3.org/2000/svg" viewBox="0 0 1200 600"><svg xmlns="http://www.w3.org/2000/svg" viewBox="0 0 1200&#xA;       600"><g id="hysteresis_svg" transform="translate(100,30)"><g class="hysteresis"><path d="M-1.2575640028315962 269.5331591738156 C9.933581267132201 262.0455408814381, 19.98695687985326 254.53045511219375, 30.166338741676192 243.63330024993286 M-0.689168148389162 269.7780316433035 C10.366617121018308 259.99572102474167, 21.930187416711956 251.72436209648058, 30.909691292323863 243.21121765254 M31.580371525185004 243.58696744011175 C37.63759755993384 238.19514161222742, 44.12310998551698 230.5188856641811, 61.846974350005304 215.7786045736059 M30.22643358080933 242.80193394760366 C42.45858567850762 233.68144860530273, 53.27608687230761 222.93707855611507, 62.238399522948434 216.13978671170844 M63.05939771719683 214.72328236724167 C72.24995600496321 207.17597091802511, 82.48019233933917 195.71199721187182, 93.08462421104551 189.97219589166366 M61.608582897069624 216.0979311587207 C72.36677173074885 206.20828955217794, 84.21054311002277 196.15759540363976, 93.18686154051996 189.4302117969829 M93.45980191960071 190.29807384591643 C99.05981795817206 182.7677301388798, 105.6338239014215 177.75066007900557, 122.20516578988553 161.65136802080013 M92.77061742964506 188.81264272850734 C102.15165399326288 181.49591843241242, 109.97548144098504 172.67411097055717, 123.93821167068653 161.54773640586342 M123.87935878246209 163.30452786337426 C133.72401207147516 152.0980963221094, 143.90687117360702 142.63972415138167, 155.24842574122778 134.06239320844486 M124.07965617967888 161.89912465568253 C135.06120036092142 152.54825197548791, 145.55663838881836 142.21395358979575, 154.2653890325448 134.47043187309208 M153.20313519370322 134.71353734800178 C162.40069747570587 125.83058101199687, 173.81730558285236 119.51203019301471, 185.85417866552805 106.63574389602522 M154.15740783147186 134.8900446362717 C165.05311053979415 125.28979926862525, 175.9603989045149 116.4507476239719, 185.13715206741261 107.38173135638576 M186.47943583435074 107.59619380396825 C194.1083143781642 101.37212275382576, 202.35910710577087 92.9581033011376, 214.9682826526656 81.70850822536528 M185.47517657527158 107.90121352887645 C191.10754723466061 102.57329134696617, 197.8726132329397 95.90779287934795, 215.63100699611394 81.36043271927765 M217.25216939046214 80.18520041646913 C229.3417769627954 90.66037735282116, 241.77506539576953 103.4882136977154, 245.96604725966557 107.76643165914169 M216.37977137903061 81.39685554269063 C226.42065373980049 90.37297046028564, 238.04510231072277 100.66501393193721, 246.54341042073338 107.44464524650022 M246.655045589458 107.07472122699166 C255.59339935531028 115.75743866174251, 267.58680186139026 124.31166879691429, 277.67010934329164 135.07745355556932 M247.37283579201977 108.3765195401216 C257.45085395895194 116.30185794792295, 267.9424940363424 125.9388063131985, 277.3660761451473 134.64535848520242 M278.9915434557085 134.91171637328878 C290.85705361661815 146.19533937836184, 303.2112278780284 155.7189757429596, 308.7236404276885 161.41110186663283 M277.69124116872257 134.45460692173853 C284.5861873089152 140.25868724938277, 290.5184294016586 145.88339190908695, 309.19708583203646 161.35898029308197 M309.64174447536675 162.43657757822197 C319.42830515944615 171.182492252081, 329.59165986390326 179.8031337511144, 338.0612701892753 189.84117410170882 M308.0043839006289 162.25816164873208 C320.83327404856135 172.5782129023674, 332.37655804316773 183.84191585619664, 339.19064687851295 189.28605410970067 M339.18445502971855 188.02636983969862 C346.25813261587615 194.0275484720482, 351.87597784060284 199.71537048663703, 369.2834890509986 215.79508311911178 M339.07073451929114 188.53081039607085 C345.69776825050735 194.5529207437042, 352.0824346729441 200.17965380123735, 369.5920400050021 215.9847984344438 M371.48984368245056 216.09674885975642 C380.44353245530317 223.51742667561493, 389.3245585679968 234.58970796239777, 400.394419299654 243.67425836844157 M370.37246084361516 215.699595616174 C378.6435927217929 223.03099964317852, 387.46626013859117 231.61067562968523, 401.71983968672674 242.44720847213844 M402.38640914103104 244.11572324970308 C410.11568897566343 250.16624125929286, 419.371856412404 257.4440497502925, 433.31093810285364 271.31032008556224 M401.51780914785377 242.54321558604943 C408.89519418897163 250.30895557025062, 417.07361992569474 257.2686480863561, 432.36395352366856 270.49722289267413 M431.4109786056604 268.976241644662 C442.15757251422775 279.34458174900874, 454.14750939499044 290.1682221038384, 462.3499979936114 296.25344957022253 M432.6315301240968 270.6011751077988 C442.86624110535047 279.3300038962036, 452.17726791185146 288.332599795071, 462.57633885767723 297.38400114634123 M462.8341211821599 296.86553264615947 C469.447490069143 304.2865102125753, 477.19000774920937 308.7042800127428, 494.17225243116667 323.03370619325057 M462.44999024474754 297.08735493751817 C475.0295203829404 307.37617715950154, 486.1067889128918 317.09750358087496, 493.1971525476532 323.7485397033173 M494.7934146264853 323.11492760046303 C501.23837766015646 316.74334626596305, 507.9925600493248 311.4314318735093, 524.196563747643 297.1145729841833 M493.72812890778135 323.93123654881373 C502.629948580016 315.57254020910466, 511.3630004771168 308.53700304558214, 524.5891152316542 297.07862524513354 M525.4475061845131 296.335452741247 C532.147692569198 292.1128379982681, 536.3103708467204 287.04437328571044, 556.3512757239638 268.9722417887682 M524.6232217973163 296.69439306285676 C534.1695843323157 289.40292373155535, 543.1589065789916 280.2271488024542, 555.3428129471365 270.4319289393245 M556.4441445303038 271.26202624735487 C563.3936972333918 263.22708402081344, 571.4060138853566 255.62665476628067, 586.6988878250392 242.60778878304862 M555.0013961546547 270.19927996165427 C566.918152831055 259.3861005368863, 578.004612124693 249.49944607552717, 586.4570150537611 242.81421217876726 M587.6698450432856 243.01231735458558 C596.2988958718244 250.2530438572845, 604.7281615208041 258.92658995749895, 617.8419074412707 270.13717734238185 M585.8955404061744 243.58110331376093 C595.3598244759295 251.47752560055238, 605.9026079623235 259.36830295185587, 616.5516967514128 270.66160370573647 M616.5860893557954 270.9994268929949 C628.5060561648951 281.5523963343826, 640.1663127599294 290.0584045851788, 647.9333083907645 295.66071400650077 M616.6188671915053 269.33437255281353 C623.8499399427449 275.7144098949749, 629.5942377644712 281.5796858032981, 648.5098141162972 297.69925894503194 M647.1341414439128 298.06569088461083 C660.3821814074992 288.2191005493875, 669.7710711230408 277.5217089640614, 679.0522255160406 269.5892582735666 M647.4896014506924 296.936853113219 C654.2162146416352 290.8747735258578, 660.8216147477933 286.1193868127226, 678.3745507462762 269.7689716959396 M678.7873979612333 270.44568492352306 C686.7821343880519 261.87772961650774, 696.464154352822 255.74916749105185, 708.5124302129427 243.1215683543281 M678.9202263320087 270.073704430948 C685.3351086131657 263.8145282675293, 692.2999674220217 257.99889553129583, 709.4536495177279 242.30549196463252 M709.4778644228993 244.35948970769292 C716.3593686735198 248.36697732722246, 721.8681187793214 254.471130772282, 739.6200570781346 269.3900907487175 M709.062669363279 242.5162748660517 C718.365512873063 250.78034617773017, 727.2734150604851 258.63255001001664, 740.3894317759102 270.09598052066895 M740.3489819535389 268.61370961062 C748.3177519390523 276.5223608571686, 755.3002497807586 283.8786835420844, 771.7583358977037 296.38501402872055 M740.7948756890999 269.86526900087244 C748.9635451122269 277.64522372698264, 757.6270110218893 285.7913896053633, 771.5312236076119 296.54615352457375 M772.6511716707922 298.0164967675954 C782.6483311936543 286.205453410901, 793.7083646687361 276.6708146397534, 801.9935890857486 269.440945139768 M770.8342681922487 297.00121184132837 C783.3473237457874 286.6555789935492, 793.7271910655327 277.7588624337591, 802.822394741909 269.8927906488237 M803.5844938012156 270.688869274299 C812.6655027777832 261.38368130968666, 823.0355777732718 252.75553141583617, 833.3688401115188 242.10912427944896 M802.4131275510041 269.7707840490818 C809.3537757846034 264.0668741430657, 816.7083322606875 257.56674090403806, 832.6488036743152 243.54533592636938 M832.0861806927707 243.78824466144573 C840.652172298873 238.26140979687986, 847.3981305101191 231.02852449130654, 864.6964551611092 215.5610726136401 M833.5148003845497 242.7941258414514 C844.9830261825092 232.7405371323927, 855.4019942652901 223.05735842310594, 863.8570103678635 215.3870241804124 M863.3924370426967 217.35027147193384 C876.2746331223556 227.52729153453822, 887.7445687089752 237.9254290211249, 893.7939573989593 244.3047103177687 M864.5291981758095 215.36914425157153 C870.2750456122169 222.5683013142302, 878.050616456718 227.58148862450037, 895.0939226277943 242.38675723267465 M895.3023404453093 244.1770928654453 C904.266103547665 250.19616182951881, 913.8367169873716 259.677771878819, 924.8768170059127 269.1808637259431 M895.4811987723895 242.9193132991267 C902.8575183542893 250.19787110773794, 912.8376248339832 258.0360909189878, 925.6080152928745 269.7470130453989 M924.6467562251763 269.7981515635372 C932.9504544218656 277.6660769421106, 941.4079710024572 283.88498524426495, 955.6601452153926 296.1332229699234 M925.2339911983714 270.00273904471464 C933.710149955256 277.0505313496575, 943.0747028027544 284.91753596017827, 957.2338340013887 297.51487070320553 M957.1150393488753 297.93272068201964 C965.1282875641576 289.44907355314007, 974.3734197946609 281.1500795802505, 987.6895066296676 268.76376561755245 M955.9260439354296 297.0754876547367 C965.435130082846 288.99475307243796, 972.9803486425213 282.03884959117426, 987.8107926848619 270.13733776552033 M988.7337480462323 270.610395418011 C996.6151713941034 261.3084047813371, 1004.9003260848682 255.4338434504301, 1019.6447814670604 243.27421119776065 M987.5240574589593 270.5775397218141 C998.3409492661931 261.135426872494, 1009.7323107032037 250.42831690215945, 1017.6749559942584 243.62036865343336 M1018.1645650001373 242.01655715110797 C1030.3514359557148 234.30764202094468, 1041.0494446243574 222.9536027003944, 1048.4155592295601 215.59378844717847 M1018.5539248036599 243.06974841241376 C1024.0974769636364 237.36866775077527, 1031.3477205149075 231.3151097598957, 1048.6093186661578 216.40388175329267 M1048.378986177793 216.32072959767592 C1058.6686169621607 207.91902104163412, 1067.838290935483 200.11873834193665, 1080.4126047640266 189.1112957042702 M1049.205679127004 215.67103612412848 C1058.8843774846332 208.65843547473446, 1067.6048059864343 199.77130810137993, 1079.5646400260323 188.3443886770712" stroke="black" stroke-width="1.5" fill="none" stroke-dasharray="0"/></g><g class="hysteresis"><path d="M0.4598705054928712 268.9133078223384 C8.029244668395116 268.89442265355456, 14.14407727255915 270.41340255233274, 31.28919900403621 271.0406722383415 M-0.033235588414826385 270.41293927420577 C9.592455396916762 269.56755044450773, 19.910344946983866 269.61687964472793, 31.160902286141784 270.15894009736655 M32.05591501145251 269.86065487701035 C41.15701045412053 268.84513354857324, 52.234190278241925 268.9884571394908, 62.23057640380454 269.9181645156197 M30.524549010138244 269.7745581877849 C39.365687593024425 270.662898226056, 46.26299892652842 269.45173684812545, 61.556748124857414 270.4168488735448 M62.22802515837052 271.3645323198717 C71.05758271073351 270.6391228107063, 81.22172043181382 269.5117039586258, 92.48315074930883 269.94023266479513 M61.1599678115066 270.0157912756606 C69.32048477326073 269.4832870993702, 76.64045559933508 270.6688945167118, 91.99871195053063 270.37505593257816 M93.42173661579801 269.5393230012353 C100.83827560752647 269.9869008373938, 106.6153947273713 270.14083594235007, 122.24184425263444 271.0068930052009 M92.65880691310285 270.0042647414173 C102.6977991050242 270.1960517120609, 111.7483944450157 270.5571009355125, 123.471048278013 269.70318314546495 M122.74360004205928 271.0539276247495 C131.22021365045438 269.768902585776, 140.0254184714855 269.4639518661689, 153.37109321022493 269.3863577684789 M123.78005773855551 270.5854087321711 C133.65621912533757 269.7251835825661, 143.81408812774987 269.88368522980403, 154.16631952159898 269.4482314269254 M155.30446460989626 270.8677395814142 C163.85324130503946 268.75777569698073, 172.72403355195263 268.7323000346365, 186.34840317398786 271.28607159525285 M154.76320144290474 270.39716800050513 C165.10754162000177 269.90420106332914, 175.54842981593768 270.33727092176724, 184.90176971661626 270.27302391202267 M184.31820673539372 271.2435873552174 C195.84365155792074 270.51716080215374, 206.39290574348752 270.6444763181753, 216.42960419709527 270.6914106617832 M184.93596494871758 269.9079340519829 C197.01697384461855 270.51758534777326, 208.7052949364052 269.8520342919516, 215.94106866457713 270.4581850030064 M215.87746469071192 269.5298206584104 C227.6119001539392 269.166788598807, 238.55455067378784 270.6571233943581, 246.79356493204045 268.9278189623491 M215.80535719303305 270.4613284320739 C225.45091967194983 270.6098417293678, 234.45003704871232 269.55120317667945, 246.3680301902853 270.68220933464994 M245.9294855283173 269.3193234428315 C257.5859980956999 270.736657935458, 270.59007991274905 270.06867860045327, 278.35202867407577 269.54744067206394 M247.5450123396298 270.18287609023025 C257.60620116990225 269.49176119162894, 269.2790572255763 269.76437581100606, 278.014117124287 270.2119808770718 M276.9119771764396 270.74335722548483 C284.490339898499 271.137872545478, 292.0858925487277 270.9441538849582, 309.31264948199095 269.2403342595961 M277.2075432107392 269.6763577939338 C286.8542892611284 270.3244216693431, 295.0754550561725 270.19294559397827, 308.8953824171994 270.0851541153532 M308.62604342826927 269.9540382915462 C319.99160309622556 271.30532968952485, 331.24763393677995 271.0460216451719, 340.5546636309118 270.4515264419857 M308.9282895271836 269.89211580996175 C319.6460755956122 270.10667655415637, 329.31106681561346 269.5092714654771, 339.3984355413275 269.8706495366565 M340.4650363723652 270.33423737163014 C345.0661580334883 269.1912576933772, 352.87181116591063 270.6567934538981, 369.66076178155066 269.87138482359126 M339.81696880816196 270.42892918843194 C345.58891436908783 269.5546280509298, 352.26421545497703 269.7148253190105, 370.4528040028368 270.2104157236603 M370.2356706930925 270.77862908280576 C383.5375955807969 268.6652723080441, 394.3404260532767 271.15298717077127, 401.3218141769643 269.0070143022444 M370.72666089558237 269.9440666249184 C379.4927109874149 270.0460857114047, 389.9076226779162 270.37464305607017, 401.5035487591789 270.2548057796024 M399.9501745667069 270.46400073520044 C412.33269104218857 269.77273016056574, 422.58861037755776 269.3136144115392, 432.46899272925396 269.3243877559748 M401.4304150721533 270.16231567046447 C406.8508892571489 269.67021872796784, 413.49152312394784 269.4143160500889, 431.73532734892325 269.6587297368719 M430.83322695082984 269.29248240876444 C442.77980503256794 269.03031522715526, 452.958154132008 268.874100695959, 462.08136238794054 269.0727986372392 M432.44513996014075 270.59406136640496 C443.7397076834442 270.6383789510113, 455.56971129089237 269.3070435977639, 462.9740685136787 270.39576678690787 M463.83281692670056 269.7502917153047 C471.93345652495714 315.9795775715299, 483.92984919605817 360.13035791585105, 495.0896579182273 405.9660522286921 M462.53618142319687 269.45417737685204 C469.61330654902685 298.0421514730966, 476.1722295909254 327.02811027783144, 493.06789063333355 405.2675653188062 M492.6154574424032 403.82627884759813 C500.9102490772254 404.0228715609538, 509.1232457653286 403.7168843073151, 524.9661475171725 404.2492672339526 M493.3681585114743 405.246218693962 C504.59152622916366 405.52905372906, 514.0185828244793 405.043802310416, 524.3236031150885 404.61948237947047 M525.5839695984761 403.94593451220504 C534.5873694295153 405.2282689084952, 543.1739436597444 406.35916348062483, 554.8466398028211 404.0123008268598 M524.5721643533881 405.23643140616963 C530.8230349962971 405.52985736806704, 537.905214987534 404.4400967354175, 555.393817447072 405.5896723937362 M554.9038198665463 403.7740196112505 C563.6941799013725 405.8059106527514, 574.8526517040123 405.52282191871103, 587.2725630742423 405.7843756351383 M554.760998083118 405.3805917023869 C562.6349037095474 404.6753960708622, 569.4954626366534 404.75796660410083, 586.0663014933492 404.8047082617185 M585.9662452747084 405.5349207814364 C595.2700821642042 404.64682067415134, 607.7809121891338 404.45695875372496, 617.3247965044529 404.90570133535977 M585.8115238409184 404.70081945078556 C593.0974254037784 405.4520700330379, 599.85499364669 405.4173235513941, 616.9570372313459 405.0759296319609 M616.2288232286193 404.234344889471 C628.2646685965364 406.1678374736252, 636.3742586899036 403.9128492413432, 648.8286677883732 404.43814802156857 M617.2926416242171 404.7942256430907 C624.7109448223646 405.3937376159549, 631.8762529957346 404.9745088163477, 647.4446818092206 405.67252748497845 M648.5605283134435 405.4251532993522 C656.1330424314574 405.61489710096, 663.4140573418042 403.672479605896, 679.1697920258247 404.70465407001586 M648.6280967051403 405.6201399398888 C656.190234471352 404.37536825301027, 662.9951404421553 405.36445637627367, 679.4194775555274 405.38240027237623 M678.8457192356315 405.0027902646708 C684.8991970835053 404.8570155100912, 690.3734474800438 406.18569438080664, 708.6591518348116 403.9788561489616 M679.2195451070797 404.9311548379147 C689.3935184216414 404.3347725245026, 700.5644858043433 405.0886852097434, 709.6267273315964 404.99550417307233 M708.7077612550855 405.66423405692177 C720.9317779730326 406.203080902053, 731.6091012351197 404.3527159938402, 740.9767803689606 406.01971909789046 M709.9402849972062 405.53723922045236 C716.065852245241 405.51560952290237, 722.758385178564 404.91606716115456, 740.4853815147184 405.6197231037219 M739.2006624391923 405.6679676290188 C749.8948962389453 405.51068123789224, 759.9612343549737 404.6146397514291, 770.346011527121 406.04527791535014 M740.1082073774878 404.70518440062136 C749.5407274891542 404.4964118452779, 759.3718865872972 404.8633190909483, 770.9555008647499 405.0811006030377 M771.7389345778826 404.26261357925625 C783.2734838156007 405.018929584466, 795.6446348360886 404.4237624002769, 802.8877580049157 406.03336561431996 M771.9164474681857 405.4077860704051 C780.777485051624 405.3322290640402, 789.4963852371976 405.408672329265, 802.1530793510954 404.4791875316469 M801.2154951754022 404.83598952047873 C813.5095817832707 404.22712025858266, 825.0791893095259 405.72702867845965, 833.2943691019483 405.6159575239174 M801.8708981140929 404.7073791383278 C810.2188021537279 405.66140064119566, 818.4562456387802 404.45951296420884, 833.3721138204218 404.8253557055032 M833.7011436209119 405.75405431742035 C838.919042301305 373.35856033906276, 845.832741748301 345.1605256874321, 863.2684341935352 270.21681190495855 M833.4944643190973 404.69325161462956 C841.5933140650073 368.2916551129459, 850.2746670373576 331.6236456441521, 864.1929360858347 270.39651401872254 M863.6852747886338 269.0558231757612 C874.2018960824912 269.0810048987738, 884.4226407159222 270.977396717655, 894.4883836749949 271.3037657396631 M863.6214107289678 270.53837292638224 C875.758474633348 270.05748985856593, 886.6505035418215 270.3954375270764, 895.1713945170318 269.3766079441168 M895.6996469808516 270.7142661618623 C902.9025198644716 271.2583650880146, 912.441651562053 269.54125697306415, 924.5200374529697 269.53470893808634 M895.5022898751795 269.5087259319265 C903.9411536016197 270.0622131830052, 912.2193136306955 269.48151589576844, 925.1161809103875 270.31894406003494 M926.6999849507545 269.6989751490737 C935.7791880455983 268.70479472659537, 946.750946789606 270.5621521684075, 955.272909183534 269.1457747297086 M925.3947711555902 269.92626856648735 C932.8490511602008 269.8860249735899, 939.8512025622917 269.5414965571765, 956.0761820309489 269.618044557078 M955.4009807908913 268.9418415474785 C968.0572693158116 269.2027603897667, 980.1480610118118 271.00764538738264, 988.357822696347 269.9962213495593 M956.0065149512611 270.10017843576134 C966.0583032831822 269.586603380239, 975.9175332455895 269.70796832823623, 987.9755121717246 269.98970864658025 M988.4585926407352 269.9305734600432 C998.1982390800035 271.286597499153, 1007.5154586993915 270.0183727932067, 1018.2816515901492 269.6214411954929 M986.8045613314928 269.9431693008183 C996.0844454340898 270.15278225669215, 1005.7526737438044 270.26472771165436, 1017.9280523626877 269.92954109539954 M1019.1450374138342 270.3656881551364 C1028.9519003652645 271.18947397742517, 1035.9711344776172 270.158067675923, 1049.0739337963234 268.80660840686227 M1017.6649747684356 269.4819467840004 C1025.5796506747122 269.7575464317941, 1033.868223171494 269.45722023519386, 1048.8742176345067 270.5071215619453 M1050.2631650958795 270.7449847125123 C1057.8867004857098 270.39672775059813, 1065.8259557887145 269.50670653010496, 1078.6048809454096 268.82183761023623 M1049.5467242760426 270.00720131914017 C1060.6238964217382 269.9297005210374, 1072.9035138732474 269.4719403591406, 1080.6114245452113 270.5372598961502" stroke="black" stroke-width="1.5" fill="none" stroke-dasharray="10 10"/></g><g><path d="M-0.22299212173109315 303.9629164669024 C428.7399795967075 304.1014106846184, 857.1433934844372 303.19138326635124, 1080.200363802537 303.4810581569162 M0.0067090545157282916 303.77310018220237 C240.16074795556443 304.02895273182344, 479.87678834613996 303.6354866449477, 1080.053975163367 303.51363955620803" stroke="black" stroke-width="1.5" fill="none" stroke-dasharray="2 6"/></g><g><path d="M-0.09399456287467017 236.52905204708517 C305.56377602732255 235.9765196632591, 610.5030586834868 236.53931342908388, 1080.2411231240958 236.77261304540022 M0.09206297658251435 236.33642488275962 C298.40515197168185 236.49539235444416, 597.0923759396836 236.3858926170267, 1079.721451661999 236.2200311339787" stroke="black" stroke-width="1.5" fill="none" stroke-dasharray="2 6"/></g><g fill="none" font-size="10" font-family="sans-serif" text-anchor="end" class="yAxishysteresis"><path class="domain" stroke="transparent" d="M0.5,540.5V0.5"/><g class="tick" opacity="1" transform="translate(0,540.5)" style="opacity: 1;"><line stroke="currentColor" x2="0"/><path fill="currentColor" transform="translate(0, 5)" style="text-anchor: end; font-family: MyGaegu; font-size: 20px;" d="M-17.9-0.1L-17.9-0.1Q-18.2 0.2-18.8 0.5Q-19.3 0.8-20.0 1.1Q-20.7 1.3-21.4 1.4Q-22.1 1.6-22.6 1.6L-22.6 1.6Q-23.4 1.6-23.4 1.2L-23.4 1.2Q-23.4 0.9-23.0 0.9L-23.0 0.9Q-22.2 0.8-21.8 0.8Q-21.3 0.7-21.2 0.7L-21.2 0.7Q-20.7 0.6-20.0 0.2Q-19.3-0.1-18.7-0.6Q-18.1-1.1-17.7-1.7Q-17.3-2.2-17.3-2.8L-17.3-2.8Q-17.2-3.2-17.2-3.6L-17.2-3.6Q-17.2-4.6-17.8-5.1Q-18.3-5.6-19.2-5.6L-19.2-5.6Q-19.6-5.6-21.2-5.3L-21.2-5.3Q-21.5-5.4-21.5-5.8L-21.5-5.8Q-21.4-5.9-21.2-6.0Q-20.9-6.1-20.6-6.3Q-20.3-6.4-20.0-6.6Q-19.7-6.8-19.5-7.0L-19.5-7.0Q-18.5-8.0-18.5-8.9L-18.5-8.9Q-18.5-9.5-19.1-9.9Q-19.6-10.2-20.4-10.2L-20.4-10.2Q-20.6-10.2-20.8-10.2Q-21-10.2-21.2-10.2Q-21.4-10.1-21.7-9.9Q-21.9-9.7-22.3-9.4L-22.3-9.4Q-22.7-9.1-22.9-8.8Q-23.1-8.6-23.3-8.4Q-23.4-8.3-23.5-8.2Q-23.6-8.1-23.8-8.1L-23.8-8.1Q-24.2-8.1-24.2-8.7L-24.2-8.7Q-24.0-9.0-23.7-9.4Q-23.4-9.8-22.9-10.2Q-22.4-10.5-21.8-10.8Q-21.2-11.1-20.5-11.1L-20.5-11.1Q-19.9-11.1-19.4-11.0Q-18.8-11.0-18.4-10.8Q-18.0-10.6-17.8-10.2Q-17.6-9.7-17.6-8.9L-17.6-8.9Q-17.6-8.6-17.7-8.3Q-17.8-8.0-18.1-7.4L-18.1-7.4Q-18.3-7.0-18.5-6.7Q-18.6-6.5-18.6-6.4L-18.6-6.4Q-18.0-6.2-17.6-6.0Q-17.1-5.7-16.8-5.5Q-16.5-5.2-16.3-4.8Q-16.2-4.4-16.2-3.8L-16.2-3.8Q-16.2-2.2-17.9-0.1ZM-5-5.7L-5-5.7Q-5.0-5.2-5.2-4.7Q-5.4-4.1-5.6-3.5Q-5.8-3.0-6.0-2.5Q-6.3-2.0-6.6-1.6L-6.6-1.6Q-7.2-1.2-7.6-0.9Q-7.9-0.7-8.2-0.6Q-8.4-0.5-8.7-0.4Q-8.9-0.4-9.3-0.4L-9.3-0.4Q-9.8-0.4-10.4-0.7Q-10.9-0.9-11.4-1.3Q-11.9-1.8-12.3-2.3Q-12.7-2.9-12.7-3.6L-12.7-3.6Q-13.1-4.6-13.1-5.4L-13.1-5.4Q-13.1-6.5-12.6-7.4Q-12.1-8.3-11.1-9.2L-11.1-9.2Q-10.5-9.6-10.0-9.9Q-9.6-10.1-9.2-10.2Q-8.7-10.3-8.4-10.3Q-8.1-10.3-7.8-10.3L-7.8-10.3Q-7.0-10.3-6.5-10.1Q-6.0-9.9-5.7-9.4Q-5.4-8.9-5.3-8.0Q-5.1-7.1-5-5.7ZM-6.2-4.3L-6.2-4.3Q-5.8-5.1-5.8-6.1L-5.8-6.1Q-5.8-6.7-6.0-7.3Q-6.1-7.9-6.4-8.4Q-6.6-8.9-7.0-9.3Q-7.3-9.6-7.8-9.6L-7.8-9.6Q-10.8-9.6-11.9-6.8L-11.9-6.8Q-12.1-6.2-12.1-5.5L-12.1-5.5Q-12.1-5.0-12.0-4.4Q-11.9-3.8-11.8-3.2L-11.8-3.2Q-10.7-1.2-9.3-1.2L-9.3-1.2Q-8.3-1.2-7.5-2.0Q-6.7-2.8-6.2-4.3Z"/></g><g class="tick" opacity="1" transform="translate(0,473)" style="opacity: 1;"><line stroke="currentColor" x2="0"/><path fill="currentColor" transform="translate(0, 5)" style="text-anchor: end; font-family: MyGaegu; font-size: 20px;" d="M-34.6-0.1L-34.6-0.1Q-34.9 0.2-35.5 0.5Q-36.0 0.8-36.7 1.1Q-37.4 1.3-38.1 1.4Q-38.8 1.6-39.3 1.6L-39.3 1.6Q-40.1 1.6-40.1 1.2L-40.1 1.2Q-40.1 0.9-39.7 0.9L-39.7 0.9Q-38.9 0.8-38.4 0.8Q-38.0 0.7-37.9 0.7L-37.9 0.7Q-37.4 0.6-36.7 0.2Q-36.0-0.1-35.4-0.6Q-34.8-1.1-34.4-1.7Q-34.0-2.2-34.0-2.8L-34.0-2.8Q-33.9-3.2-33.9-3.6L-33.9-3.6Q-33.9-4.6-34.4-5.1Q-34.9-5.6-35.9-5.6L-35.9-5.6Q-36.3-5.6-37.9-5.3L-37.9-5.3Q-38.2-5.4-38.2-5.8L-38.2-5.8Q-38.1-5.9-37.9-6.0Q-37.6-6.1-37.3-6.3Q-37.0-6.4-36.7-6.6Q-36.4-6.8-36.2-7.0L-36.2-7.0Q-35.2-8.0-35.2-8.9L-35.2-8.9Q-35.2-9.5-35.7-9.9Q-36.3-10.2-37.1-10.2L-37.1-10.2Q-37.3-10.2-37.5-10.2Q-37.7-10.2-37.9-10.2Q-38.1-10.1-38.4-9.9Q-38.6-9.7-39.0-9.4L-39.0-9.4Q-39.4-9.1-39.6-8.8Q-39.8-8.6-40.0-8.4Q-40.1-8.3-40.2-8.2Q-40.3-8.1-40.5-8.1L-40.5-8.1Q-40.9-8.1-40.9-8.7L-40.9-8.7Q-40.7-9.0-40.4-9.4Q-40.1-9.8-39.6-10.2Q-39.1-10.5-38.5-10.8Q-37.9-11.1-37.2-11.1L-37.2-11.1Q-36.6-11.1-36.1-11.0Q-35.5-11.0-35.1-10.8Q-34.7-10.6-34.5-10.2Q-34.3-9.7-34.3-8.9L-34.3-8.9Q-34.3-8.6-34.4-8.3Q-34.5-8.0-34.8-7.4L-34.8-7.4Q-35.0-7.0-35.2-6.7Q-35.3-6.5-35.3-6.4L-35.3-6.4Q-34.7-6.2-34.3-6.0Q-33.8-5.7-33.5-5.5Q-33.2-5.2-33.0-4.8Q-32.8-4.4-32.8-3.8L-32.8-3.8Q-32.8-2.2-34.6-0.1ZM-21.7-5.7L-21.7-5.7Q-21.7-5.2-21.9-4.7Q-22.0-4.1-22.3-3.5Q-22.5-3.0-22.7-2.5Q-23.0-2.0-23.2-1.6L-23.2-1.6Q-23.9-1.2-24.2-0.9Q-24.6-0.7-24.9-0.6Q-25.1-0.5-25.4-0.4Q-25.6-0.4-25.9-0.4L-25.9-0.4Q-26.5-0.4-27.0-0.7Q-27.6-0.9-28.1-1.3Q-28.6-1.8-29.0-2.3Q-29.3-2.9-29.4-3.6L-29.4-3.6Q-29.8-4.6-29.8-5.4L-29.8-5.4Q-29.8-6.5-29.3-7.4Q-28.8-8.3-27.7-9.2L-27.7-9.2Q-27.2-9.6-26.7-9.9Q-26.2-10.1-25.8-10.2Q-25.4-10.3-25.1-10.3Q-24.7-10.3-24.5-10.3L-24.5-10.3Q-23.7-10.3-23.2-10.1Q-22.7-9.9-22.4-9.4Q-22.1-8.9-21.9-8.0Q-21.8-7.1-21.7-5.7ZM-22.8-4.3L-22.8-4.3Q-22.5-5.1-22.5-6.1L-22.5-6.1Q-22.5-6.7-22.7-7.3Q-22.8-7.9-23.1-8.4Q-23.3-8.9-23.7-9.3Q-24.0-9.6-24.4-9.6L-24.4-9.6Q-27.5-9.6-28.6-6.8L-28.6-6.8Q-28.8-6.2-28.8-5.5L-28.8-5.5Q-28.8-5.0-28.7-4.4Q-28.6-3.8-28.4-3.2L-28.4-3.2Q-27.3-1.2-25.9-1.2L-25.9-1.2Q-25.0-1.2-24.2-2.0Q-23.4-2.8-22.8-4.3ZM-15.5-0.6L-15.5-0.6Q-15.5-0.4-15.7-0.3Q-15.9-0.2-16.0-0.2L-16.0-0.2Q-16.1-0.2-16.3-0.2Q-16.5-0.2-16.6-0.3Q-16.8-0.4-16.9-0.5Q-17.0-0.7-17.0-0.9L-17.0-0.9Q-17.0-1.2-16.8-1.5Q-16.6-1.8-16.3-1.8L-16.3-1.8Q-16.2-1.8-16.1-1.8Q-15.9-1.8-15.8-1.7Q-15.7-1.5-15.6-1.3Q-15.5-1.1-15.5-0.6ZM-5.2-1.7L-5.2-1.7Q-5.4-1.4-5.6-1.1Q-5.8-0.8-6.1-0.5Q-6.4-0.2-6.9 0.1Q-7.3 0.5-8.0 1L-8.0 1L-9.4 1.7Q-9.8 1.9-10.1 2Q-10.3 2.1-10.5 2.1L-10.5 2.1Q-10.7 2.1-10.7 2.0Q-10.8 1.8-10.8 1.8L-10.8 1.8Q-10.8 1.5-10.4 1.3Q-10.0 1.1-9.5 0.9Q-9.0 0.6-8.4 0.3Q-7.8-0.0-7.2-0.6L-7.2-0.6L-6.2-1.6Q-5.7-2.4-5.7-3.2L-5.7-3.2Q-5.7-3.6-5.8-4.0Q-6.0-4.3-6.5-4.9L-6.5-4.9Q-7.1-5.5-7.7-5.7Q-8.3-6.0-9.0-6.0L-9.0-6.0Q-9.3-6.0-9.6-5.9Q-9.8-5.9-10.1-5.9L-10.1-5.9Q-10.5-5.9-11.0-6.2L-11.0-6.2L-11.0-6.1Q-11.0-6.1-11.0-6.8Q-10.9-7.4-10.6-8.7L-10.6-8.7Q-10.5-9.2-10.5-9.5Q-10.4-9.8-10.4-9.8L-10.4-9.8Q-10.4-9.9-10.5-10.1Q-10.5-10.4-10.5-10.6L-10.5-10.6Q-10.5-10.7-10.4-10.8Q-10.3-10.9-10.2-11.0Q-10.1-11-10.0-11Q-9.9-11-9.8-11L-9.8-11Q-9.5-11-9.5-10.9Q-9.4-10.9-9.3-10.8Q-9.1-10.8-8.9-10.7Q-8.7-10.6-8.2-10.6L-8.2-10.6Q-8.1-10.6-8.0-10.7Q-8.0-10.7-7.9-10.7L-7.9-10.7Q-7.7-10.7-7.3-10.6Q-6.9-10.6-6.5-10.5Q-6.0-10.5-5.7-10.4Q-5.4-10.4-5.4-10.4L-5.4-10.4Q-5.2-10.4-5.2-10.1L-5.2-10.1Q-5.2-9.8-5.5-9.7L-5.5-9.7Q-5.9-9.8-6.4-9.8Q-7.0-9.8-8.0-9.9L-8.0-9.9Q-8.2-9.9-8.4-9.9Q-8.6-9.9-8.7-9.9L-8.7-9.9Q-9.2-9.9-9.5-9.7L-9.5-9.7Q-10.0-8.3-10.0-7.1L-10.0-7.1Q-10.0-6.8-9.9-6.7L-9.9-6.7Q-9.7-6.7-9.6-6.7Q-9.5-6.7-9.3-6.7L-9.3-6.7Q-8.8-6.7-8.2-6.6Q-7.6-6.6-7.1-6.3Q-6.5-6.1-6.0-5.7Q-5.6-5.3-5.2-4.6L-5.2-4.6Q-4.8-3.8-4.8-3.2L-4.8-3.2Q-4.8-2.7-5.2-1.7Z"/></g><g class="tick" opacity="1" transform="translate(0,405.5)" style="opacity: 1;"><line stroke="currentColor" x2="0"/><path fill="currentColor" transform="translate(0, 5)" style="text-anchor: end; font-family: MyGaegu; font-size: 20px;" d="M-14.6-0.1L-14.6-0.1Q-14.9 0.2-15.5 0.5Q-16.0 0.8-16.7 1.1Q-17.4 1.3-18.1 1.4Q-18.8 1.6-19.3 1.6L-19.3 1.6Q-20.1 1.6-20.1 1.2L-20.1 1.2Q-20.1 0.9-19.7 0.9L-19.7 0.9Q-18.9 0.8-18.4 0.8Q-18.0 0.7-17.9 0.7L-17.9 0.7Q-17.4 0.6-16.7 0.2Q-16.0-0.1-15.4-0.6Q-14.8-1.1-14.4-1.7Q-14.0-2.2-14.0-2.8L-14.0-2.8Q-13.9-3.2-13.9-3.6L-13.9-3.6Q-13.9-4.6-14.4-5.1Q-14.9-5.6-15.9-5.6L-15.9-5.6Q-16.3-5.6-17.9-5.3L-17.9-5.3Q-18.2-5.4-18.2-5.8L-18.2-5.8Q-18.1-5.9-17.9-6.0Q-17.6-6.1-17.3-6.3Q-17.0-6.4-16.7-6.6Q-16.4-6.8-16.2-7.0L-16.2-7.0Q-15.2-8.0-15.2-8.9L-15.2-8.9Q-15.2-9.5-15.7-9.9Q-16.3-10.2-17.1-10.2L-17.1-10.2Q-17.3-10.2-17.5-10.2Q-17.7-10.2-17.9-10.2Q-18.1-10.1-18.4-9.9Q-18.6-9.7-19-9.4L-19-9.4Q-19.4-9.1-19.6-8.8Q-19.8-8.6-20.0-8.4Q-20.1-8.3-20.2-8.2Q-20.3-8.1-20.5-8.1L-20.5-8.1Q-20.9-8.1-20.9-8.7L-20.9-8.7Q-20.7-9.0-20.4-9.4Q-20.1-9.8-19.6-10.2Q-19.1-10.5-18.5-10.8Q-17.9-11.1-17.2-11.1L-17.2-11.1Q-16.6-11.1-16.1-11.0Q-15.5-11.0-15.1-10.8Q-14.7-10.6-14.5-10.2Q-14.3-9.7-14.3-8.9L-14.3-8.9Q-14.3-8.6-14.4-8.3Q-14.5-8.0-14.8-7.4L-14.8-7.4Q-15.0-7.0-15.2-6.7Q-15.3-6.5-15.3-6.4L-15.3-6.4Q-14.7-6.2-14.3-6.0Q-13.8-5.7-13.5-5.5Q-13.2-5.2-13.0-4.8Q-12.8-4.4-12.8-3.8L-12.8-3.8Q-12.8-2.2-14.6-0.1ZM-6.3-10.4L-6.3-10.4L-6.3-10.3Q-6.3-10.1-6.4-9.6Q-6.5-9-6.6-8.4Q-6.7-7.8-6.8-7.2Q-6.9-6.7-6.9-6.6L-6.9-6.6Q-6.9-6.4-6.9-6.3L-6.9-6.3Q-6.9-6.2-6.9-6Q-6.9-5.8-6.9-5.5L-6.9-5.5Q-6.9-5.3-6.9-5.0Q-6.9-4.7-6.9-4.5L-6.9-4.5Q-6.9-4.3-6.9-4.1Q-6.9-3.9-7.0-3.8L-7.0-3.8Q-6.7-2.5-6.7-1.8L-6.7-1.8Q-6.7-1.3-6.9-1.1Q-7.0-0.8-7.4-0.8L-7.4-0.8Q-7.5-0.8-7.6-1.0Q-7.7-1.1-7.7-1.4Q-7.8-1.6-7.8-1.9Q-7.8-2.2-7.8-2.4L-7.8-2.4Q-7.8-2.5-7.8-2.5Q-7.8-2.6-7.8-2.7L-7.8-2.7Q-7.8-3.3-7.8-3.9Q-7.9-4.4-7.9-4.6L-7.9-4.6Q-7.9-5.3-7.7-5.6L-7.7-5.6Q-7.8-5.9-7.8-6.3L-7.8-6.3Q-7.8-6.5-7.8-6.8Q-7.7-7.1-7.7-7.4Q-7.6-7.7-7.6-7.9Q-7.6-8.1-7.6-8.2L-7.6-8.2Q-7.6-8.3-7.5-8.7Q-7.5-9.1-7.4-9.5Q-7.3-10.0-7.2-10.3Q-7.0-10.7-6.7-10.7L-6.7-10.7Q-6.3-10.7-6.3-10.4Z"/></g><g class="tick" opacity="1" transform="translate(0,338)" style="opacity: 1;"><line stroke="currentColor" x2="0"/><path fill="currentColor" transform="translate(0, 5)" style="text-anchor: end; font-family: MyGaegu; font-size: 20px;" d="M-31.3-0.1L-31.3-0.1Q-31.6 0.2-32.1 0.5Q-32.7 0.8-33.4 1.1Q-34.0 1.3-34.7 1.4Q-35.4 1.6-36.0 1.6L-36.0 1.6Q-36.8 1.6-36.8 1.2L-36.8 1.2Q-36.8 0.9-36.4 0.9L-36.4 0.9Q-35.6 0.8-35.1 0.8Q-34.7 0.7-34.6 0.7L-34.6 0.7Q-34.1 0.6-33.4 0.2Q-32.7-0.1-32.1-0.6Q-31.5-1.1-31.1-1.7Q-30.7-2.2-30.7-2.8L-30.7-2.8Q-30.6-3.2-30.6-3.6L-30.6-3.6Q-30.6-4.6-31.1-5.1Q-31.6-5.6-32.6-5.6L-32.6-5.6Q-33-5.6-34.6-5.3L-34.6-5.3Q-34.9-5.4-34.9-5.8L-34.9-5.8Q-34.8-5.9-34.5-6.0Q-34.3-6.1-34.0-6.3Q-33.7-6.4-33.3-6.6Q-33.0-6.8-32.9-7.0L-32.9-7.0Q-31.9-8.0-31.9-8.9L-31.9-8.9Q-31.9-9.5-32.4-9.9Q-32.9-10.2-33.8-10.2L-33.8-10.2Q-34-10.2-34.2-10.2Q-34.4-10.2-34.6-10.2Q-34.8-10.1-35.0-9.9Q-35.3-9.7-35.7-9.4L-35.7-9.4Q-36.1-9.1-36.3-8.8Q-36.5-8.6-36.6-8.4Q-36.8-8.3-36.9-8.2Q-37.0-8.1-37.1-8.1L-37.1-8.1Q-37.5-8.1-37.5-8.7L-37.5-8.7Q-37.4-9.0-37.1-9.4Q-36.8-9.8-36.3-10.2Q-35.8-10.5-35.2-10.8Q-34.6-11.1-33.8-11.1L-33.8-11.1Q-33.3-11.1-32.7-11.0Q-32.2-11.0-31.8-10.8Q-31.4-10.6-31.2-10.2Q-30.9-9.7-30.9-8.9L-30.9-8.9Q-30.9-8.6-31.0-8.3Q-31.1-8.0-31.4-7.4L-31.4-7.4Q-31.7-7.0-31.8-6.7Q-32.0-6.5-32.0-6.4L-32.0-6.4Q-31.4-6.2-30.9-6.0Q-30.5-5.7-30.2-5.5Q-29.8-5.2-29.7-4.8Q-29.5-4.4-29.5-3.8L-29.5-3.8Q-29.5-2.2-31.3-0.1ZM-23.0-10.4L-23.0-10.4L-23.0-10.3Q-23.0-10.1-23.1-9.6Q-23.2-9-23.3-8.4Q-23.4-7.8-23.5-7.2Q-23.6-6.7-23.6-6.6L-23.6-6.6Q-23.6-6.4-23.5-6.3L-23.5-6.3Q-23.6-6.2-23.6-6Q-23.6-5.8-23.6-5.5L-23.6-5.5Q-23.6-5.3-23.6-5.0Q-23.6-4.7-23.6-4.5L-23.6-4.5Q-23.6-4.3-23.6-4.1Q-23.6-3.9-23.6-3.8L-23.6-3.8Q-23.4-2.5-23.4-1.8L-23.4-1.8Q-23.4-1.3-23.5-1.1Q-23.7-0.8-24.0-0.8L-24.0-0.8Q-24.2-0.8-24.3-1.0Q-24.4-1.1-24.4-1.4Q-24.4-1.6-24.4-1.9Q-24.5-2.2-24.5-2.4L-24.5-2.4Q-24.5-2.5-24.5-2.5Q-24.5-2.6-24.5-2.7L-24.5-2.7Q-24.5-3.3-24.5-3.9Q-24.5-4.4-24.5-4.6L-24.5-4.6Q-24.5-5.3-24.4-5.6L-24.4-5.6Q-24.5-5.9-24.5-6.3L-24.5-6.3Q-24.5-6.5-24.4-6.8Q-24.4-7.1-24.3-7.4Q-24.3-7.7-24.3-7.9Q-24.2-8.1-24.2-8.2L-24.2-8.2Q-24.2-8.3-24.2-8.7Q-24.2-9.1-24.1-9.5Q-24.0-10.0-23.9-10.3Q-23.7-10.7-23.4-10.7L-23.4-10.7Q-23.0-10.7-23.0-10.4ZM-15.5-0.6L-15.5-0.6Q-15.5-0.4-15.7-0.3Q-15.9-0.2-16.0-0.2L-16.0-0.2Q-16.1-0.2-16.3-0.2Q-16.5-0.2-16.6-0.3Q-16.8-0.4-16.9-0.5Q-17.0-0.7-17.0-0.9L-17.0-0.9Q-17.0-1.2-16.8-1.5Q-16.6-1.8-16.3-1.8L-16.3-1.8Q-16.2-1.8-16.1-1.8Q-15.9-1.8-15.8-1.7Q-15.7-1.5-15.6-1.3Q-15.5-1.1-15.5-0.6ZM-5.2-1.7L-5.2-1.7Q-5.4-1.4-5.6-1.1Q-5.8-0.8-6.1-0.5Q-6.4-0.2-6.8 0.1Q-7.3 0.5-8.0 1L-8.0 1L-9.4 1.7Q-9.8 1.9-10.0 2Q-10.3 2.1-10.5 2.1L-10.5 2.1Q-10.7 2.1-10.7 2.0Q-10.8 1.8-10.8 1.8L-10.8 1.8Q-10.8 1.5-10.4 1.3Q-10.0 1.1-9.5 0.9Q-9.0 0.6-8.4 0.3Q-7.8-0.0-7.2-0.6L-7.2-0.6L-6.2-1.6Q-5.7-2.4-5.7-3.2L-5.7-3.2Q-5.7-3.6-5.8-4.0Q-6.0-4.3-6.5-4.9L-6.5-4.9Q-7.1-5.5-7.7-5.7Q-8.3-6.0-9.0-6.0L-9.0-6.0Q-9.3-6.0-9.5-5.9Q-9.8-5.9-10.1-5.9L-10.1-5.9Q-10.5-5.9-11.0-6.2L-11.0-6.2L-11.0-6.1Q-11.0-6.1-11.0-6.8Q-10.9-7.4-10.6-8.7L-10.6-8.7Q-10.5-9.2-10.5-9.5Q-10.4-9.8-10.4-9.8L-10.4-9.8Q-10.4-9.9-10.4-10.1Q-10.5-10.4-10.5-10.6L-10.5-10.6Q-10.5-10.7-10.4-10.8Q-10.3-10.9-10.2-11.0Q-10.1-11-10.0-11Q-9.9-11-9.8-11L-9.8-11Q-9.5-11-9.4-10.9Q-9.4-10.9-9.2-10.8Q-9.1-10.8-8.9-10.7Q-8.7-10.6-8.2-10.6L-8.2-10.6Q-8.1-10.6-8.0-10.7Q-8.0-10.7-7.9-10.7L-7.9-10.7Q-7.7-10.7-7.3-10.6Q-6.9-10.6-6.5-10.5Q-6.0-10.5-5.7-10.4Q-5.4-10.4-5.4-10.4L-5.4-10.4Q-5.2-10.4-5.2-10.1L-5.2-10.1Q-5.2-9.8-5.5-9.7L-5.5-9.7Q-5.9-9.8-6.4-9.8Q-7.0-9.8-8.0-9.9L-8.0-9.9Q-8.2-9.9-8.4-9.9Q-8.6-9.9-8.7-9.9L-8.7-9.9Q-9.2-9.9-9.5-9.7L-9.5-9.7Q-10.0-8.3-10.0-7.1L-10.0-7.1Q-10.0-6.8-9.9-6.7L-9.9-6.7Q-9.7-6.7-9.6-6.7Q-9.5-6.7-9.3-6.7L-9.3-6.7Q-8.8-6.7-8.2-6.6Q-7.6-6.6-7.1-6.3Q-6.5-6.1-6.0-5.7Q-5.6-5.3-5.2-4.6L-5.2-4.6Q-4.8-3.8-4.8-3.2L-4.8-3.2Q-4.8-2.7-5.2-1.7Z"/></g><g class="tick" opacity="1" transform="translate(0,270.5)" style="opacity: 1;"><line stroke="currentColor" x2="0"/><path fill="currentColor" transform="translate(0, 5)" style="text-anchor: end; font-family: MyGaegu; font-size: 20px;" d="M-16.9-0.1L-16.9-0.1Q-17.2 0.2-17.8 0.5Q-18.3 0.8-19.0 1.1Q-19.7 1.3-20.4 1.4Q-21.1 1.6-21.6 1.6L-21.6 1.6Q-22.4 1.6-22.4 1.2L-22.4 1.2Q-22.4 0.9-22.0 0.9L-22.0 0.9Q-21.2 0.8-20.7 0.8Q-20.3 0.7-20.2 0.7L-20.2 0.7Q-19.7 0.6-19 0.2Q-18.3-0.1-17.7-0.6Q-17.1-1.1-16.7-1.7Q-16.3-2.2-16.3-2.8L-16.3-2.8Q-16.2-3.2-16.2-3.6L-16.2-3.6Q-16.2-4.6-16.7-5.1Q-17.2-5.6-18.2-5.6L-18.2-5.6Q-18.6-5.6-20.2-5.3L-20.2-5.3Q-20.5-5.4-20.5-5.8L-20.5-5.8Q-20.4-5.9-20.2-6.0Q-19.9-6.1-19.6-6.3Q-19.3-6.4-19.0-6.6Q-18.7-6.8-18.5-7.0L-18.5-7.0Q-17.5-8.0-17.5-8.9L-17.5-8.9Q-17.5-9.5-18.0-9.9Q-18.6-10.2-19.4-10.2L-19.4-10.2Q-19.6-10.2-19.8-10.2Q-20.0-10.2-20.2-10.2Q-20.4-10.1-20.7-9.9Q-20.9-9.7-21.3-9.4L-21.3-9.4Q-21.7-9.1-21.9-8.8Q-22.1-8.6-22.3-8.4Q-22.4-8.3-22.5-8.2Q-22.6-8.1-22.8-8.1L-22.8-8.1Q-23.2-8.1-23.2-8.7L-23.2-8.7Q-23.0-9.0-22.7-9.4Q-22.4-9.8-21.9-10.2Q-21.4-10.5-20.8-10.8Q-20.2-11.1-19.5-11.1L-19.5-11.1Q-18.9-11.1-18.4-11.0Q-17.8-11.0-17.4-10.8Q-17.0-10.6-16.8-10.2Q-16.6-9.7-16.6-8.9L-16.6-8.9Q-16.6-8.6-16.7-8.3Q-16.8-8.0-17.1-7.4L-17.1-7.4Q-17.3-7.0-17.5-6.7Q-17.6-6.5-17.6-6.4L-17.6-6.4Q-17.0-6.2-16.6-6.0Q-16.1-5.7-15.8-5.5Q-15.5-5.2-15.3-4.8Q-15.1-4.4-15.1-3.8L-15.1-3.8Q-15.1-2.2-16.9-0.1ZM-4.9-0.4L-4.9-0.4Q-5.1-0.3-5.3-0.3L-5.3-0.3Q-5.7-0.3-5.8-0.4Q-6.0-0.4-6.1-0.4Q-6.2-0.4-6.3-0.4Q-6.4-0.4-6.6-0.4L-6.6-0.4Q-6.7-0.4-6.9-0.4Q-7.1-0.4-7.3-0.4L-7.3-0.4Q-7.7-0.4-8.0-0.4Q-8.3-0.5-8.6-0.6L-8.6-0.6Q-8.8-0.6-9.0-0.6L-9.0-0.6Q-9.3-0.6-9.6-0.6Q-9.8-0.6-10.0-0.6Q-10.2-0.7-10.5-0.7Q-10.7-0.8-11.2-0.8L-11.2-0.8Q-11.4-1-11.4-1.3L-11.4-1.3Q-11.4-1.5-11.3-1.7L-11.3-1.7Q-10.6-2.3-10.3-2.7Q-10.0-3.1-9.7-3.5Q-9.5-3.8-9.2-4.2Q-8.9-4.5-8.3-5.1L-8.3-5.1Q-8.2-5.2-8.1-5.4Q-7.9-5.6-7.7-5.9Q-7.5-6.2-7.4-6.4Q-7.2-6.7-7.0-6.9L-7.0-6.9Q-6.3-7.7-6.3-8.7L-6.3-8.7Q-6.3-9.2-6.6-9.6Q-6.8-9.9-7.6-9.9L-7.6-9.9Q-8.0-9.9-8.4-9.8Q-8.8-9.7-9.1-9.6Q-9.5-9.5-9.8-9.3Q-10.1-9.1-10.3-8.9L-10.3-8.9Q-10.4-8.8-10.6-8.5Q-10.7-8.2-10.9-7.9Q-11.1-7.6-11.3-7.3Q-11.4-7.1-11.6-7.1L-11.6-7.1Q-11.8-7.1-11.9-7.3Q-12.0-7.4-12.0-7.6L-12.0-7.6Q-12.0-7.9-11.9-8.2Q-11.7-8.6-11.5-8.9Q-11.2-9.3-11.0-9.5Q-10.7-9.8-10.5-9.9L-10.5-9.9Q-9.0-10.7-7.4-10.7L-7.4-10.7Q-6.8-10.7-6.4-10.5Q-6.1-10.4-5.8-10.1Q-5.6-9.8-5.5-9.4Q-5.4-9.0-5.4-8.6L-5.4-8.6Q-5.4-7.5-6.1-6.7L-6.1-6.7Q-6.3-6.5-6.5-6.2Q-6.7-5.9-6.9-5.7Q-7.1-5.4-7.2-5.2Q-7.3-5.0-7.4-5.0L-7.4-5.0Q-7.9-4.6-9.0-2.9L-9.0-2.9Q-9.5-2.5-9.8-2.2Q-10.1-1.8-10.2-1.5L-10.2-1.5Q-9.5-1.5-8.5-1.3L-8.5-1.3Q-8.3-1.3-8.1-1.2Q-7.9-1.2-7.7-1.2L-7.7-1.2Q-7.5-1.2-7.3-1.2L-7.3-1.2Q-7.2-1.2-7.1-1.2Q-6.9-1.2-6.8-1.2L-6.8-1.2Q-6.4-1.2-6.0-1.2Q-5.6-1.3-5.1-1.3L-5.1-1.3Q-4.8-1.3-4.8-0.8L-4.8-0.8Q-4.8-0.5-4.9-0.4Z"/></g><g class="tick" opacity="1" transform="translate(0,203)" style="opacity: 1;"><line stroke="currentColor" x2="0"/><path fill="currentColor" transform="translate(0, 5)" style="text-anchor: end; font-family: MyGaegu; font-size: 20px;" d="M-33.6-0.1L-33.6-0.1Q-33.9 0.2-34.4 0.5Q-35 0.8-35.7 1.1Q-36.3 1.3-37.0 1.4Q-37.7 1.6-38.3 1.6L-38.3 1.6Q-39.1 1.6-39.1 1.2L-39.1 1.2Q-39.1 0.9-38.7 0.9L-38.7 0.9Q-37.9 0.8-37.4 0.8Q-37.0 0.7-36.9 0.7L-36.9 0.7Q-36.4 0.6-35.7 0.2Q-35-0.1-34.4-0.6Q-33.8-1.1-33.4-1.7Q-33.0-2.2-33.0-2.8L-33.0-2.8Q-32.9-3.2-32.9-3.6L-32.9-3.6Q-32.9-4.6-33.4-5.1Q-33.9-5.6-34.9-5.6L-34.9-5.6Q-35.3-5.6-36.9-5.3L-36.9-5.3Q-37.2-5.4-37.2-5.8L-37.2-5.8Q-37.1-5.9-36.9-6.0Q-36.6-6.1-36.3-6.3Q-36.0-6.4-35.7-6.6Q-35.3-6.8-35.2-7.0L-35.2-7.0Q-34.2-8.0-34.2-8.9L-34.2-8.9Q-34.2-9.5-34.7-9.9Q-35.2-10.2-36.1-10.2L-36.1-10.2Q-36.3-10.2-36.5-10.2Q-36.7-10.2-36.9-10.2Q-37.1-10.1-37.3-9.9Q-37.6-9.7-38.0-9.4L-38.0-9.4Q-38.4-9.1-38.6-8.8Q-38.8-8.6-38.9-8.4Q-39.1-8.3-39.2-8.2Q-39.3-8.1-39.4-8.1L-39.4-8.1Q-39.8-8.1-39.8-8.7L-39.8-8.7Q-39.7-9.0-39.4-9.4Q-39.1-9.8-38.6-10.2Q-38.1-10.5-37.5-10.8Q-36.9-11.1-36.1-11.1L-36.1-11.1Q-35.6-11.1-35.0-11.0Q-34.5-11.0-34.1-10.8Q-33.7-10.6-33.5-10.2Q-33.2-9.7-33.2-8.9L-33.2-8.9Q-33.2-8.6-33.3-8.3Q-33.4-8.0-33.7-7.4L-33.7-7.4Q-34-7.0-34.1-6.7Q-34.3-6.5-34.3-6.4L-34.3-6.4Q-33.7-6.2-33.2-6.0Q-32.8-5.7-32.5-5.5Q-32.1-5.2-32.0-4.8Q-31.8-4.4-31.8-3.8L-31.8-3.8Q-31.8-2.2-33.6-0.1ZM-21.6-0.4L-21.6-0.4Q-21.8-0.3-22.0-0.3L-22.0-0.3Q-22.3-0.3-22.5-0.4Q-22.7-0.4-22.8-0.4Q-22.9-0.4-23.0-0.4Q-23.1-0.4-23.2-0.4L-23.2-0.4Q-23.4-0.4-23.6-0.4Q-23.8-0.4-24.0-0.4L-24.0-0.4Q-24.3-0.4-24.7-0.4Q-25.0-0.5-25.3-0.6L-25.3-0.6Q-25.4-0.6-25.7-0.6L-25.7-0.6Q-26.0-0.6-26.2-0.6Q-26.5-0.6-26.7-0.6Q-26.9-0.7-27.1-0.7Q-27.4-0.8-27.9-0.8L-27.9-0.8Q-28.1-1-28.1-1.3L-28.1-1.3Q-28.1-1.5-28.0-1.7L-28.0-1.7Q-27.3-2.3-27.0-2.7Q-26.6-3.1-26.4-3.5Q-26.1-3.8-25.9-4.2Q-25.6-4.5-25.0-5.1L-25.0-5.1Q-24.9-5.2-24.7-5.4Q-24.6-5.6-24.4-5.9Q-24.2-6.2-24.0-6.4Q-23.8-6.7-23.7-6.9L-23.7-6.9Q-23.0-7.7-23.0-8.7L-23.0-8.7Q-23.0-9.2-23.3-9.6Q-23.5-9.9-24.3-9.9L-24.3-9.9Q-24.6-9.9-25.0-9.8Q-25.4-9.7-25.8-9.6Q-26.2-9.5-26.5-9.3Q-26.8-9.1-27.0-8.9L-27.0-8.9Q-27.1-8.8-27.2-8.5Q-27.4-8.2-27.6-7.9Q-27.7-7.6-27.9-7.3Q-28.1-7.1-28.3-7.1L-28.3-7.1Q-28.5-7.1-28.6-7.3Q-28.7-7.4-28.7-7.6L-28.7-7.6Q-28.7-7.9-28.6-8.2Q-28.4-8.6-28.1-8.9Q-27.9-9.3-27.6-9.5Q-27.4-9.8-27.2-9.9L-27.2-9.9Q-25.7-10.7-24.0-10.7L-24.0-10.7Q-23.5-10.7-23.1-10.5Q-22.7-10.4-22.5-10.1Q-22.3-9.8-22.2-9.4Q-22.1-9.0-22.1-8.6L-22.1-8.6Q-22.1-7.5-22.8-6.7L-22.8-6.7Q-23.0-6.5-23.2-6.2Q-23.4-5.9-23.6-5.7Q-23.7-5.4-23.9-5.2Q-24.0-5.0-24.0-5.0L-24.0-5.0Q-24.6-4.6-25.7-2.9L-25.7-2.9Q-26.1-2.5-26.5-2.2Q-26.8-1.8-26.9-1.5L-26.9-1.5Q-26.2-1.5-25.2-1.3L-25.2-1.3Q-25.0-1.3-24.8-1.2Q-24.6-1.2-24.4-1.2L-24.4-1.2Q-24.2-1.2-24.0-1.2L-24.0-1.2Q-23.9-1.2-23.7-1.2Q-23.6-1.2-23.4-1.2L-23.4-1.2Q-23.1-1.2-22.7-1.2Q-22.3-1.3-21.7-1.3L-21.7-1.3Q-21.5-1.3-21.5-0.8L-21.5-0.8Q-21.5-0.5-21.6-0.4ZM-15.5-0.6L-15.5-0.6Q-15.5-0.4-15.7-0.3Q-15.9-0.2-16.0-0.2L-16.0-0.2Q-16.1-0.2-16.3-0.2Q-16.5-0.2-16.6-0.3Q-16.8-0.4-16.9-0.5Q-17.0-0.7-17.0-0.9L-17.0-0.9Q-17.0-1.2-16.8-1.5Q-16.6-1.8-16.3-1.8L-16.3-1.8Q-16.2-1.8-16.1-1.8Q-15.9-1.8-15.8-1.7Q-15.7-1.5-15.6-1.3Q-15.5-1.1-15.5-0.6ZM-5.2-1.7L-5.2-1.7Q-5.4-1.4-5.6-1.1Q-5.8-0.8-6.1-0.5Q-6.4-0.2-6.9 0.1Q-7.3 0.5-8.0 1L-8.0 1L-9.4 1.7Q-9.8 1.9-10.1 2Q-10.3 2.1-10.5 2.1L-10.5 2.1Q-10.7 2.1-10.7 2.0Q-10.8 1.8-10.8 1.8L-10.8 1.8Q-10.8 1.5-10.4 1.3Q-10.0 1.1-9.5 0.9Q-9.0 0.6-8.4 0.3Q-7.8-0.0-7.2-0.6L-7.2-0.6L-6.2-1.6Q-5.7-2.4-5.7-3.2L-5.7-3.2Q-5.7-3.6-5.8-4.0Q-6-4.3-6.5-4.9L-6.5-4.9Q-7.1-5.5-7.7-5.7Q-8.3-6.0-9.0-6.0L-9.0-6.0Q-9.3-6.0-9.6-5.9Q-9.8-5.9-10.1-5.9L-10.1-5.9Q-10.5-5.9-11.0-6.2L-11.0-6.2L-11.0-6.1Q-11-6.1-11.0-6.8Q-10.9-7.4-10.6-8.7L-10.6-8.7Q-10.5-9.2-10.5-9.5Q-10.4-9.8-10.4-9.8L-10.4-9.8Q-10.4-9.9-10.4-10.1Q-10.5-10.4-10.5-10.6L-10.5-10.6Q-10.5-10.7-10.4-10.8Q-10.3-10.9-10.2-11.0Q-10.1-11-10.0-11Q-9.9-11-9.8-11L-9.8-11Q-9.5-11-9.4-10.9Q-9.4-10.9-9.3-10.8Q-9.1-10.8-8.9-10.7Q-8.7-10.6-8.2-10.6L-8.2-10.6Q-8.1-10.6-8.0-10.7Q-8.0-10.7-7.9-10.7L-7.9-10.7Q-7.7-10.7-7.3-10.6Q-6.9-10.6-6.5-10.5Q-6.0-10.5-5.7-10.4Q-5.4-10.4-5.4-10.4L-5.4-10.4Q-5.2-10.4-5.2-10.1L-5.2-10.1Q-5.2-9.8-5.5-9.7L-5.5-9.7Q-5.9-9.8-6.4-9.8Q-7-9.8-8.0-9.9L-8.0-9.9Q-8.2-9.9-8.4-9.9Q-8.6-9.9-8.7-9.9L-8.7-9.9Q-9.2-9.9-9.5-9.7L-9.5-9.7Q-10.0-8.3-10.0-7.1L-10.0-7.1Q-10.0-6.8-9.9-6.7L-9.9-6.7Q-9.7-6.7-9.6-6.7Q-9.5-6.7-9.3-6.7L-9.3-6.7Q-8.8-6.7-8.2-6.6Q-7.6-6.6-7.1-6.3Q-6.5-6.1-6.0-5.7Q-5.6-5.3-5.2-4.6L-5.2-4.6Q-4.8-3.8-4.8-3.2L-4.8-3.2Q-4.8-2.7-5.2-1.7Z"/></g><g class="tick" opacity="1" transform="translate(0,135.5)" style="opacity: 1;"><line stroke="currentColor" x2="0"/><path fill="currentColor" transform="translate(0, 5)" style="text-anchor: end; font-family: MyGaegu; font-size: 20px;" d="M-17.1-0.1L-17.1-0.1Q-17.4 0.2-17.9 0.5Q-18.5 0.8-19.2 1.1Q-19.8 1.3-20.5 1.4Q-21.2 1.6-21.8 1.6L-21.8 1.6Q-22.6 1.6-22.6 1.2L-22.6 1.2Q-22.6 0.9-22.2 0.9L-22.2 0.9Q-21.4 0.8-20.9 0.8Q-20.5 0.7-20.4 0.7L-20.4 0.7Q-19.9 0.6-19.2 0.2Q-18.5-0.1-17.9-0.6Q-17.3-1.1-16.9-1.7Q-16.5-2.2-16.5-2.8L-16.5-2.8Q-16.4-3.2-16.4-3.6L-16.4-3.6Q-16.4-4.6-16.9-5.1Q-17.4-5.6-18.4-5.6L-18.4-5.6Q-18.8-5.6-20.4-5.3L-20.4-5.3Q-20.7-5.4-20.7-5.8L-20.7-5.8Q-20.6-5.9-20.4-6.0Q-20.1-6.1-19.8-6.3Q-19.5-6.4-19.2-6.6Q-18.8-6.8-18.7-7.0L-18.7-7.0Q-17.7-8.0-17.7-8.9L-17.7-8.9Q-17.7-9.5-18.2-9.9Q-18.7-10.2-19.6-10.2L-19.6-10.2Q-19.8-10.2-20.0-10.2Q-20.2-10.2-20.4-10.2Q-20.6-10.1-20.8-9.9Q-21.1-9.7-21.5-9.4L-21.5-9.4Q-21.9-9.1-22.1-8.8Q-22.3-8.6-22.4-8.4Q-22.6-8.3-22.7-8.2Q-22.8-8.1-22.9-8.1L-22.9-8.1Q-23.3-8.1-23.3-8.7L-23.3-8.7Q-23.2-9.0-22.9-9.4Q-22.6-9.8-22.1-10.2Q-21.6-10.5-21.0-10.8Q-20.4-11.1-19.6-11.1L-19.6-11.1Q-19.1-11.1-18.5-11.0Q-18-11.0-17.6-10.8Q-17.2-10.6-17.0-10.2Q-16.7-9.7-16.7-8.9L-16.7-8.9Q-16.7-8.6-16.8-8.3Q-16.9-8.0-17.2-7.4L-17.2-7.4Q-17.5-7.0-17.6-6.7Q-17.8-6.5-17.8-6.4L-17.8-6.4Q-17.2-6.2-16.7-6.0Q-16.3-5.7-16.0-5.5Q-15.6-5.2-15.5-4.8Q-15.3-4.4-15.3-3.8L-15.3-3.8Q-15.3-2.2-17.1-0.1ZM-6.5-0.1L-6.5-0.1Q-6.8 0.2-7.3 0.5Q-7.9 0.8-8.6 1.1Q-9.2 1.3-9.9 1.4Q-10.6 1.6-11.2 1.6L-11.2 1.6Q-12.0 1.6-12.0 1.2L-12.0 1.2Q-12.0 0.9-11.6 0.9L-11.6 0.9Q-10.7 0.8-10.3 0.8Q-9.8 0.7-9.8 0.7L-9.8 0.7Q-9.2 0.6-8.6 0.2Q-7.9-0.1-7.3-0.6Q-6.7-1.1-6.3-1.7Q-5.8-2.2-5.8-2.8L-5.8-2.8Q-5.8-3.2-5.8-3.6L-5.8-3.6Q-5.8-4.6-6.3-5.1Q-6.8-5.6-7.8-5.6L-7.8-5.6Q-8.2-5.6-9.8-5.3L-9.8-5.3Q-10.0-5.4-10.0-5.8L-10.0-5.8Q-10.0-5.9-9.7-6.0Q-9.5-6.1-9.2-6.3Q-8.8-6.4-8.5-6.6Q-8.2-6.8-8.1-7.0L-8.1-7.0Q-7.1-8.0-7.1-8.9L-7.1-8.9Q-7.1-9.5-7.6-9.9Q-8.1-10.2-9.0-10.2L-9.0-10.2Q-9.2-10.2-9.4-10.2Q-9.5-10.2-9.7-10.2Q-9.9-10.1-10.2-9.9Q-10.5-9.7-10.9-9.4L-10.9-9.4Q-11.3-9.1-11.5-8.8Q-11.7-8.6-11.8-8.4Q-11.9-8.3-12.0-8.2Q-12.1-8.1-12.3-8.1L-12.3-8.1Q-12.7-8.1-12.7-8.7L-12.7-8.7Q-12.6-9.0-12.3-9.4Q-11.9-9.8-11.5-10.2Q-11.0-10.5-10.4-10.8Q-9.7-11.1-9.0-11.1L-9.0-11.1Q-8.4-11.1-7.9-11.0Q-7.4-11.0-7.0-10.8Q-6.6-10.6-6.4-10.2Q-6.1-9.7-6.1-8.9L-6.1-8.9Q-6.1-8.6-6.2-8.3Q-6.3-8.0-6.6-7.4L-6.6-7.4Q-6.9-7.0-7.0-6.7Q-7.2-6.5-7.2-6.4L-7.2-6.4Q-6.6-6.2-6.1-6.0Q-5.7-5.7-5.3-5.5Q-5.0-5.2-4.9-4.8Q-4.7-4.4-4.7-3.8L-4.7-3.8Q-4.7-2.2-6.5-0.1Z"/></g><g class="tick" opacity="1" transform="translate(0,68)" style="opacity: 1;"><line stroke="currentColor" x2="0"/><path fill="currentColor" transform="translate(0, 5)" style="text-anchor: end; font-family: MyGaegu; font-size: 20px;" d="M-33.8-0.1L-33.8-0.1Q-34.1 0.2-34.6 0.5Q-35.2 0.8-35.9 1.1Q-36.5 1.3-37.2 1.4Q-37.9 1.6-38.5 1.6L-38.5 1.6Q-39.3 1.6-39.3 1.2L-39.3 1.2Q-39.3 0.9-38.9 0.9L-38.9 0.9Q-38.0 0.8-37.6 0.8Q-37.1 0.7-37.1 0.7L-37.1 0.7Q-36.5 0.6-35.9 0.2Q-35.2-0.1-34.6-0.6Q-34.0-1.1-33.6-1.7Q-33.1-2.2-33.1-2.8L-33.1-2.8Q-33.1-3.2-33.1-3.6L-33.1-3.6Q-33.1-4.6-33.6-5.1Q-34.1-5.6-35.1-5.6L-35.1-5.6Q-35.5-5.6-37.1-5.3L-37.1-5.3Q-37.3-5.4-37.3-5.8L-37.3-5.8Q-37.3-5.9-37.0-6.0Q-36.8-6.1-36.5-6.3Q-36.1-6.4-35.8-6.6Q-35.5-6.8-35.4-7.0L-35.4-7.0Q-34.4-8.0-34.4-8.9L-34.4-8.9Q-34.4-9.5-34.9-9.9Q-35.4-10.2-36.3-10.2L-36.3-10.2Q-36.5-10.2-36.7-10.2Q-36.8-10.2-37.0-10.2Q-37.2-10.1-37.5-9.9Q-37.8-9.7-38.2-9.4L-38.2-9.4Q-38.6-9.1-38.8-8.8Q-39.0-8.6-39.1-8.4Q-39.2-8.3-39.3-8.2Q-39.4-8.1-39.6-8.1L-39.6-8.1Q-40.0-8.1-40.0-8.7L-40.0-8.7Q-39.9-9.0-39.6-9.4Q-39.2-9.8-38.8-10.2Q-38.3-10.5-37.7-10.8Q-37.0-11.1-36.3-11.1L-36.3-11.1Q-35.7-11.1-35.2-11.0Q-34.7-11.0-34.3-10.8Q-33.9-10.6-33.6-10.2Q-33.4-9.7-33.4-8.9L-33.4-8.9Q-33.4-8.6-33.5-8.3Q-33.6-8.0-33.9-7.4L-33.9-7.4Q-34.2-7.0-34.3-6.7Q-34.5-6.5-34.5-6.4L-34.5-6.4Q-33.9-6.2-33.4-6.0Q-33.0-5.7-32.6-5.5Q-32.3-5.2-32.2-4.8Q-32-4.4-32-3.8L-32-3.8Q-32-2.2-33.8-0.1ZM-23.2-0.1L-23.2-0.1Q-23.4 0.2-24 0.5Q-24.6 0.8-25.2 1.1Q-25.9 1.3-26.6 1.4Q-27.3 1.6-27.8 1.6L-27.8 1.6Q-28.6 1.6-28.6 1.2L-28.6 1.2Q-28.6 0.9-28.3 0.9L-28.3 0.9Q-27.4 0.8-27.0 0.8Q-26.5 0.7-26.4 0.7L-26.4 0.7Q-25.9 0.6-25.2 0.2Q-24.6-0.1-24.0-0.6Q-23.4-1.1-22.9-1.7Q-22.5-2.2-22.5-2.8L-22.5-2.8Q-22.5-3.2-22.5-3.6L-22.5-3.6Q-22.5-4.6-23.0-5.1Q-23.5-5.6-24.4-5.6L-24.4-5.6Q-24.9-5.6-26.4-5.3L-26.4-5.3Q-26.7-5.4-26.7-5.8L-26.7-5.8Q-26.7-5.9-26.4-6.0Q-26.2-6.1-25.8-6.3Q-25.5-6.4-25.2-6.6Q-24.9-6.8-24.7-7.0L-24.7-7.0Q-23.7-8.0-23.7-8.9L-23.7-8.9Q-23.7-9.5-24.3-9.9Q-24.8-10.2-25.6-10.2L-25.6-10.2Q-25.9-10.2-26.0-10.2Q-26.2-10.2-26.4-10.2Q-26.6-10.1-26.9-9.9Q-27.2-9.7-27.5-9.4L-27.5-9.4Q-27.9-9.1-28.2-8.8Q-28.4-8.6-28.5-8.4Q-28.6-8.3-28.7-8.2Q-28.8-8.1-29-8.1L-29-8.1Q-29.4-8.1-29.4-8.7L-29.4-8.7Q-29.3-9.0-28.9-9.4Q-28.6-9.8-28.1-10.2Q-27.7-10.5-27.0-10.8Q-26.4-11.1-25.7-11.1L-25.7-11.1Q-25.1-11.1-24.6-11.0Q-24.1-11.0-23.7-10.8Q-23.3-10.6-23.0-10.2Q-22.8-9.7-22.8-8.9L-22.8-8.9Q-22.8-8.6-22.9-8.3Q-23-8.0-23.3-7.4L-23.3-7.4Q-23.6-7.0-23.7-6.7Q-23.8-6.5-23.9-6.4L-23.9-6.4Q-23.3-6.2-22.8-6.0Q-22.3-5.7-22.0-5.5Q-21.7-5.2-21.5-4.8Q-21.4-4.4-21.4-3.8L-21.4-3.8Q-21.4-2.2-23.2-0.1ZM-15.5-0.6L-15.5-0.6Q-15.5-0.4-15.7-0.3Q-15.9-0.2-16.0-0.2L-16.0-0.2Q-16.1-0.2-16.3-0.2Q-16.5-0.2-16.6-0.3Q-16.8-0.4-16.9-0.5Q-17.0-0.7-17.0-0.9L-17.0-0.9Q-17.0-1.2-16.8-1.5Q-16.6-1.8-16.3-1.8L-16.3-1.8Q-16.2-1.8-16.1-1.8Q-15.9-1.8-15.8-1.7Q-15.7-1.5-15.6-1.3Q-15.5-1.1-15.5-0.6ZM-5.2-1.7L-5.2-1.7Q-5.4-1.4-5.6-1.1Q-5.8-0.8-6.1-0.5Q-6.4-0.2-6.9 0.1Q-7.3 0.5-8.0 1L-8.0 1L-9.4 1.7Q-9.8 1.9-10.1 2Q-10.3 2.1-10.5 2.1L-10.5 2.1Q-10.7 2.1-10.7 2.0Q-10.8 1.8-10.8 1.8L-10.8 1.8Q-10.8 1.5-10.4 1.3Q-10.0 1.1-9.5 0.9Q-9.0 0.6-8.4 0.3Q-7.8-0.0-7.2-0.6L-7.2-0.6L-6.2-1.6Q-5.7-2.4-5.7-3.2L-5.7-3.2Q-5.7-3.6-5.8-4.0Q-6-4.3-6.5-4.9L-6.5-4.9Q-7.1-5.5-7.7-5.7Q-8.3-6.0-9.0-6.0L-9.0-6.0Q-9.3-6.0-9.6-5.9Q-9.8-5.9-10.1-5.9L-10.1-5.9Q-10.5-5.9-11.0-6.2L-11.0-6.2L-11.0-6.1Q-11-6.1-11.0-6.8Q-10.9-7.4-10.6-8.7L-10.6-8.7Q-10.5-9.2-10.5-9.5Q-10.4-9.8-10.4-9.8L-10.4-9.8Q-10.4-9.9-10.4-10.1Q-10.5-10.4-10.5-10.6L-10.5-10.6Q-10.5-10.7-10.4-10.8Q-10.3-10.9-10.2-11.0Q-10.1-11-10.0-11Q-9.9-11-9.8-11L-9.8-11Q-9.5-11-9.4-10.9Q-9.4-10.9-9.3-10.8Q-9.1-10.8-8.9-10.7Q-8.7-10.6-8.2-10.6L-8.2-10.6Q-8.1-10.6-8.0-10.7Q-8.0-10.7-7.9-10.7L-7.9-10.7Q-7.7-10.7-7.3-10.6Q-6.9-10.6-6.5-10.5Q-6.0-10.5-5.7-10.4Q-5.4-10.4-5.4-10.4L-5.4-10.4Q-5.2-10.4-5.2-10.1L-5.2-10.1Q-5.2-9.8-5.5-9.7L-5.5-9.7Q-5.9-9.8-6.4-9.8Q-7-9.8-8.0-9.9L-8.0-9.9Q-8.2-9.9-8.4-9.9Q-8.6-9.9-8.7-9.9L-8.7-9.9Q-9.2-9.9-9.5-9.7L-9.5-9.7Q-10.0-8.3-10.0-7.1L-10.0-7.1Q-10.0-6.8-9.9-6.7L-9.9-6.7Q-9.7-6.7-9.6-6.7Q-9.5-6.7-9.3-6.7L-9.3-6.7Q-8.8-6.7-8.2-6.6Q-7.6-6.6-7.1-6.3Q-6.5-6.1-6.0-5.7Q-5.6-5.3-5.2-4.6L-5.2-4.6Q-4.8-3.8-4.8-3.2L-4.8-3.2Q-4.8-2.7-5.2-1.7Z"/></g><g class="tick" opacity="1" transform="translate(0,0.5)" style="opacity: 1;"><line stroke="currentColor" x2="0"/><path fill="currentColor" transform="translate(0, 5)" style="text-anchor: end; font-family: MyGaegu; font-size: 20px;" d="M-17.6-0.1L-17.6-0.1Q-17.8 0.2-18.4 0.5Q-19.0 0.8-19.6 1.1Q-20.3 1.3-21.0 1.4Q-21.7 1.6-22.2 1.6L-22.2 1.6Q-23.0 1.6-23.0 1.2L-23.0 1.2Q-23.0 0.9-22.7 0.9L-22.7 0.9Q-21.8 0.8-21.4 0.8Q-20.9 0.7-20.8 0.7L-20.8 0.7Q-20.3 0.6-19.6 0.2Q-19.0-0.1-18.4-0.6Q-17.8-1.1-17.3-1.7Q-16.9-2.2-16.9-2.8L-16.9-2.8Q-16.9-3.2-16.9-3.6L-16.9-3.6Q-16.9-4.6-17.4-5.1Q-17.9-5.6-18.8-5.6L-18.8-5.6Q-19.3-5.6-20.8-5.3L-20.8-5.3Q-21.1-5.4-21.1-5.8L-21.1-5.8Q-21.1-5.9-20.8-6.0Q-20.6-6.1-20.2-6.3Q-19.9-6.4-19.6-6.6Q-19.3-6.8-19.1-7.0L-19.1-7.0Q-18.1-8.0-18.1-8.9L-18.1-8.9Q-18.1-9.5-18.7-9.9Q-19.2-10.2-20.0-10.2L-20.0-10.2Q-20.3-10.2-20.4-10.2Q-20.6-10.2-20.8-10.2Q-21.0-10.1-21.3-9.9Q-21.6-9.7-21.9-9.4L-21.9-9.4Q-22.3-9.1-22.6-8.8Q-22.8-8.6-22.9-8.4Q-23.0-8.3-23.1-8.2Q-23.2-8.1-23.4-8.1L-23.4-8.1Q-23.8-8.1-23.8-8.7L-23.8-8.7Q-23.7-9.0-23.3-9.4Q-23.0-9.8-22.5-10.2Q-22.1-10.5-21.4-10.8Q-20.8-11.1-20.1-11.1L-20.1-11.1Q-19.5-11.1-19.0-11.0Q-18.5-11.0-18.1-10.8Q-17.7-10.6-17.4-10.2Q-17.2-9.7-17.2-8.9L-17.2-8.9Q-17.2-8.6-17.3-8.3Q-17.4-8.0-17.7-7.4L-17.7-7.4Q-18.0-7.0-18.1-6.7Q-18.2-6.5-18.3-6.4L-18.3-6.4Q-17.7-6.2-17.2-6.0Q-16.7-5.7-16.4-5.5Q-16.1-5.2-15.9-4.8Q-15.8-4.4-15.8-3.8L-15.8-3.8Q-15.8-2.2-17.6-0.1ZM-3.9-2.9L-3.9-2.9Q-4.2-2.8-4.7-2.8L-4.7-2.8Q-4.9-2.8-5.2-2.9Q-5.4-2.9-5.6-2.9L-5.6-2.9Q-5.8-2.9-6.0-2.9Q-6.2-2.9-6.3-2.8L-6.3-2.8Q-6.4-1.4-6.8 0.4L-6.8 0.4Q-7.0 0.5-7.2 0.5L-7.2 0.5Q-7.5 0.5-7.5 0.4L-7.5 0.4Q-7.5-0.2-7.4-1Q-7.3-1.8-7.0-2.9L-7.0-2.9Q-7.6-2.8-8.0-2.8Q-8.4-2.7-8.7-2.7L-8.7-2.7Q-8.7-2.7-8.9-2.8Q-9.0-2.8-9.2-2.8Q-9.5-2.8-9.9-2.8Q-10.3-2.8-10.9-2.8L-10.9-2.8Q-11.1-2.8-11.4-2.9Q-11.8-2.9-12.1-3.0Q-12.4-3.1-12.6-3.3Q-12.9-3.4-12.9-3.5L-12.9-3.5Q-12.9-3.9-12.8-4.1Q-12.7-4.3-12.5-4.6Q-12.3-4.9-12.1-5.5Q-11.8-6.1-11.3-7.1L-11.3-7.1L-9.6-9.8Q-9.5-9.9-9.4-9.9L-9.4-9.9Q-9.1-9.9-9.1-9.6L-9.1-9.6Q-9.1-9.3-9.5-8.6Q-10.0-7.9-10.7-6.8L-10.7-6.8Q-11.5-5.1-11.9-4.0L-11.9-4.0Q-11.6-3.4-11.0-3.4L-11.0-3.4Q-10.8-3.4-10.7-3.4Q-10.6-3.4-10.5-3.5Q-10.5-3.5-10.4-3.5Q-10.3-3.5-10.2-3.5L-10.2-3.5Q-10.0-3.5-9.7-3.5Q-9.4-3.4-9.1-3.4L-9.1-3.4Q-8.1-3.4-7.1-3.5L-7.1-3.5Q-7.0-3.9-7.0-4.5Q-7.0-5-6.9-5.7L-6.9-5.7Q-6.9-5.7-6.9-6.1L-6.9-6.1Q-6.9-6.9-6.8-7.5Q-6.8-8.1-6.8-8.3L-6.8-8.3Q-6.8-8.4-6.8-8.8Q-6.8-9.1-6.9-9.5Q-6.9-9.8-6.9-10.1Q-6.9-10.4-6.9-10.4L-6.9-10.4Q-6.9-10.5-6.7-10.5L-6.7-10.5Q-6.3-10.5-6.2-10.0Q-6.0-9.5-6.0-8.4L-6.0-8.4Q-6.0-8.1-6.1-7.6Q-6.1-7.1-6.1-6.4L-6.1-6.4Q-6.1-6.3-6.1-6.0L-6.1-6.0Q-6.1-5.6-6.1-5.3Q-6.1-4.9-6.1-4.5Q-6.2-4.2-6.2-3.9Q-6.2-3.7-6.2-3.6L-6.2-3.6Q-6.0-3.6-5.6-3.6Q-5.2-3.6-4.8-3.6Q-4.4-3.5-4.1-3.5Q-3.8-3.4-3.8-3.2L-3.8-3.2Q-3.8-3.1-3.9-2.9Z"/></g></g><path transform="rotate(-90)" class="labelText" style="text-anchor: middle; font-family: MyGaegu; font-size: 30px;" d="M-472.7-65.1L-472.7-65.1Q-472.7-64.7-472.9-64.0Q-473.2-63.3-473.8-62.6Q-474.4-61.9-475.4-61.2Q-476.4-60.5-478.0-59.9L-478.0-59.9Q-478.9-59.6-480.0-59.3Q-481.1-59.0-482.5-58.6L-482.5-58.6L-483.7-58.5L-484.0-58.5Q-484.6-58.5-484.9-58.6L-484.9-58.6Q-485.0-59.2-485.1-59.7Q-485.2-60.2-485.2-60.6L-485.2-60.6Q-485.2-60.8-485.2-61.0Q-485.1-61.2-485.1-61.4L-485.1-61.4Q-485.1-61.5-485.1-61.7Q-485.1-61.9-485.1-62.3L-485.1-62.3Q-485.1-63.2-485.1-63.9Q-485.0-64.6-485.0-65.2Q-484.9-65.8-484.9-66.3Q-484.8-66.8-484.8-67.4L-484.8-67.4Q-484.8-67.9-484.8-68.3Q-484.9-68.8-484.9-69.3L-484.9-69.3Q-484.7-71.2-484.5-74.0L-484.5-74.0Q-484.6-74.3-484.7-74.7Q-484.7-75.1-484.9-75.6L-484.9-75.6L-485.2-76.0Q-485.3-76.2-485.3-76.3L-485.3-76.3Q-485.3-76.5-485.2-76.7Q-485.0-76.8-484.7-76.9Q-484.4-77.0-484.1-77.1Q-483.7-77.2-483.4-77.2L-483.4-77.2Q-481.9-77.9-480.3-77.9L-480.3-77.9Q-480.2-77.9-479.9-77.9Q-479.6-77.9-479.2-77.9Q-478.8-77.8-478.4-77.6Q-478.0-77.5-477.5-77.1L-477.5-77.1L-476.3-76.2L-475.9-75.4Q-475.7-74.9-475.7-74.4L-475.7-74.4Q-475.7-73.6-476.1-72.8Q-476.6-72.1-477.6-71.0L-477.6-71.0Q-474.3-69.9-473.8-69.3L-473.8-69.3Q-473.4-68.8-473.1-67.7Q-472.8-66.5-472.7-65.1ZM-477.2-75.1L-477.2-75.1Q-477.2-75.3-477.5-75.6Q-477.7-75.9-478.0-76.2Q-478.4-76.5-478.9-76.7Q-479.4-76.9-480-76.9L-480-76.9Q-480.5-76.9-480.9-76.8Q-481.4-76.8-481.8-76.7Q-482.3-76.5-482.6-76.4Q-483.0-76.2-483.1-76.0L-483.1-76.0Q-483.3-75.5-483.4-74.5Q-483.5-73.4-483.5-71.5L-483.5-71.5Q-483.5-71.0-483.4-70.7Q-483.3-70.3-483.2-70.3L-483.2-70.3Q-482.0-70.5-481.3-70.6Q-480.7-70.7-480.3-70.8Q-479.9-71.0-479.6-71.2Q-479.4-71.4-478.9-71.8L-478.9-71.8Q-477.1-72.7-477.1-74.2L-477.1-74.2Q-477.1-74.6-477.2-75.1ZM-474.2-64.2L-474.2-64.2Q-474.0-64.7-474.0-65.3L-474.0-65.3Q-474.0-66.4-474.3-67.1Q-474.6-67.9-475.1-68.4Q-475.6-68.9-476.2-69.3Q-476.9-69.6-477.6-69.8L-477.6-69.8Q-478.1-69.9-478.5-70.0Q-478.9-70.1-479.1-70.0L-479.1-70.0Q-479.3-70.0-479.9-69.9Q-480.5-69.8-481.1-69.6Q-481.8-69.4-482.5-69.3Q-483.1-69.1-483.6-69.1L-483.6-69.1L-483.6-68.2Q-483.6-67.0-483.7-65.7Q-483.9-64.3-483.9-62.7L-483.9-62.7Q-483.9-62.2-483.9-61.7Q-483.8-61.2-483.8-60.8L-483.8-60.8Q-483.8-60.6-483.9-60.4Q-483.9-60.1-483.9-60L-483.9-60Q-483.3-59.9-482.8-59.9L-482.8-59.9Q-482.3-59.9-481.5-60.1Q-480.7-60.3-479.9-60.5Q-479.1-60.7-478.5-60.9Q-478.0-61.1-477.9-61.1L-477.9-61.1Q-477.4-61.3-476.8-61.7Q-476.2-62.1-475.7-62.5Q-475.1-63.0-474.8-63.4Q-474.4-63.8-474.2-64.2ZM-457.8-62.4L-457.8-62.4Q-457.5-62.2-457.5-62.0L-457.5-62.0Q-457.5-61.7-457.8-61.5Q-458.1-61.2-458.3-61.2L-458.3-61.2Q-458.9-61.4-459.1-61.7Q-459.4-62.0-459.7-62.3L-459.7-62.3Q-460.0-62.6-460.4-63.5Q-460.7-64.3-461.0-65.7L-461.0-65.7Q-461.2-65.1-461.5-64.2Q-461.8-63.4-462.3-62.5Q-462.8-61.7-463.5-61.1Q-464.3-60.5-465.4-60.5L-465.4-60.5Q-465.9-60.5-466.4-60.6Q-467.0-60.8-467.3-61.1Q-467.7-61.3-468.0-61.5Q-468.2-61.7-468.2-61.7L-468.2-61.7Q-468.7-62.2-468.9-62.8Q-469.2-63.5-469.2-64.3L-469.2-64.3Q-469.2-65.0-469.0-65.7Q-468.8-66.5-468.4-67.3Q-468.0-68.2-467.5-68.9Q-467.0-69.7-466.3-70.2L-466.3-70.2Q-463.9-71.1-463.0-71.1L-463.0-71.1Q-462.4-71.9-461.9-71.9L-461.9-71.9Q-461.7-71.9-461.4-71.4Q-461.2-71.0-461.0-70.3Q-460.8-69.6-460.7-68.8Q-460.5-68.0-460.4-67.3L-460.4-67.3Q-460.4-67.1-460.3-66.9Q-460.2-66.6-460.2-66.3Q-460.1-66.0-460.1-65.8Q-460.0-65.5-460.0-65.5L-460.0-65.5Q-459.5-63.5-457.8-62.4ZM-461.7-67.1L-461.7-67.1Q-461.7-67.4-461.9-68.2Q-462.1-68.9-462.4-70.2L-462.4-70.2Q-463.0-70.0-463.5-70.0Q-464.1-70.0-464.7-69.8Q-465.3-69.6-465.9-69.0Q-466.5-68.5-467.2-67.3L-467.2-67.3Q-468.0-65.9-468.0-64.1L-468.0-64.1Q-467.8-63.6-467.6-63.2Q-467.4-62.9-467.1-62.6Q-466.8-62.3-466.4-62.0Q-466.0-61.8-465.4-61.5L-465.4-61.5Q-464.8-61.6-464.4-61.8Q-464.0-62.0-463.7-62.2Q-463.4-62.5-463.1-63.0Q-462.9-63.5-462.5-64.2L-462.5-64.2Q-462.1-65.1-461.9-65.9Q-461.7-66.6-461.7-67.1ZM-451.6-76.2L-451.6-76.2Q-451.6-76.0-451.7-75.6Q-451.8-75.2-452.0-74.7Q-452.1-74.2-452.2-73.7Q-452.3-73.1-452.4-72.7L-452.4-72.7Q-452.4-72.4-452.5-71.9Q-452.6-71.4-452.7-70.9Q-452.8-70.4-452.8-69.9Q-452.9-69.5-452.9-69.2L-452.9-69.2Q-453-68.6-453.0-67.8Q-453.1-67.0-453.1-66.3Q-453.1-65.5-453.1-65.0Q-453.1-64.4-453.1-64.2L-453.1-64.2Q-453.1-63.7-453.0-63.0Q-452.9-62.3-452.7-61.6L-452.7-61.6Q-452.5-61.2-451.9-60.6L-451.9-60.6Q-452.3-60.1-452.9-60.1L-452.9-60.1Q-453.5-60.1-453.7-60.5Q-454.0-60.9-454.1-61.7Q-454.2-62.5-454.2-63.7Q-454.3-64.8-454.4-66.3L-454.4-66.3Q-454.3-66.5-454.2-67.0Q-454.2-67.5-454.2-68.0Q-454.1-68.5-454.1-68.9Q-454.1-69.4-454.1-69.6L-454.1-69.6Q-454.1-69.5-454.0-70.0Q-453.9-70.5-453.8-71.2Q-453.7-71.9-453.6-72.6Q-453.5-73.3-453.5-73.7L-453.5-73.7L-453.5-73.9Q-453.4-74.4-453.2-75.0Q-453.1-75.7-452.9-76.5L-452.9-76.5Q-452.6-76.7-452.3-76.7L-452.3-76.7Q-451.9-76.7-451.6-76.2ZM-436.2-62.4L-436.2-62.4Q-436.0-62.2-436.0-62.0L-436.0-62.0Q-436.0-61.7-436.2-61.5Q-436.5-61.2-436.8-61.2L-436.8-61.2Q-437.3-61.4-437.6-61.7Q-437.8-62.0-438.1-62.3L-438.1-62.3Q-438.5-62.6-438.8-63.5Q-439.1-64.3-439.4-65.7L-439.4-65.7Q-439.6-65.1-439.9-64.2Q-440.3-63.4-440.7-62.5Q-441.2-61.7-442.0-61.1Q-442.7-60.5-443.9-60.5L-443.9-60.5Q-444.4-60.5-444.9-60.6Q-445.4-60.8-445.8-61.1Q-446.2-61.3-446.4-61.5Q-446.7-61.7-446.7-61.7L-446.7-61.7Q-447.1-62.2-447.4-62.8Q-447.7-63.5-447.7-64.3L-447.7-64.3Q-447.7-65.0-447.4-65.7Q-447.2-66.5-446.9-67.3Q-446.5-68.2-445.9-68.9Q-445.4-69.7-444.7-70.2L-444.7-70.2Q-442.3-71.1-441.5-71.1L-441.5-71.1Q-440.8-71.9-440.4-71.9L-440.4-71.9Q-440.1-71.9-439.9-71.4Q-439.7-71.0-439.5-70.3Q-439.3-69.6-439.1-68.8Q-439.0-68.0-438.9-67.3L-438.9-67.3Q-438.8-67.1-438.8-66.9Q-438.7-66.6-438.6-66.3Q-438.6-66.0-438.5-65.8Q-438.4-65.5-438.4-65.5L-438.4-65.5Q-437.9-63.5-436.2-62.4ZM-440.1-67.1L-440.1-67.1Q-440.2-67.4-440.4-68.2Q-440.5-68.9-440.8-70.2L-440.8-70.2Q-441.4-70.0-442.0-70.0Q-442.6-70.0-443.2-69.8Q-443.8-69.6-444.4-69.0Q-445.0-68.5-445.6-67.3L-445.6-67.3Q-446.4-65.9-446.4-64.1L-446.4-64.1Q-446.3-63.6-446.1-63.2Q-445.9-62.9-445.6-62.6Q-445.3-62.3-444.9-62.0Q-444.4-61.8-443.8-61.5L-443.8-61.5Q-443.2-61.6-442.8-61.8Q-442.4-62.0-442.1-62.2Q-441.8-62.5-441.6-63.0Q-441.3-63.5-441.0-64.2L-441.0-64.2Q-440.5-65.1-440.3-65.9Q-440.1-66.6-440.1-67.1ZM-423.8-65.5L-423.5-63L-423.5-62.8Q-423.5-62.7-423.5-62.3Q-423.5-61.9-423.6-61.4Q-423.6-61.0-423.8-60.6Q-424.0-60.3-424.3-60.3L-424.3-60.3Q-424.9-60.3-425.0-60.8L-425.0-60.8Q-425.0-60.8-425.0-61.4Q-424.9-62.0-424.9-63.3L-424.9-63.3Q-424.9-63.8-424.9-64.1Q-424.9-64.3-425.0-64.6Q-425.0-64.8-425.1-65.3Q-425.3-65.7-425.5-66.8L-425.5-66.8Q-425.6-67.6-426.0-68.1Q-426.3-68.5-426.7-68.7Q-427.1-69.0-427.5-69.0Q-427.9-69.1-428.3-69.1L-428.3-69.1Q-429.4-69.1-430.1-68.4Q-430.9-67.8-431.5-66.0L-431.5-66.0Q-431.5-65.5-431.5-64.9Q-431.6-64.2-431.7-63.4L-431.7-63.4Q-431.7-62.2-431.5-60.3L-431.5-60.3Q-431.6-59.8-432.2-59.8L-432.2-59.8Q-432.5-59.8-432.6-60Q-432.8-60.2-432.9-60.6Q-433.0-61.0-433.0-61.4Q-433.1-61.8-433.1-62.1L-433.1-62.1Q-433.1-62.8-432.9-63.4L-432.9-63.4L-432.6-66.7Q-432.6-67.0-432.5-67.5Q-432.4-67.9-432.3-68.4L-432.3-68.4Q-432.4-69.2-432.9-70.2L-432.9-70.2Q-432.9-70.8-432.2-70.8L-432.2-70.8Q-431.8-70.8-431.4-70.3Q-431.1-69.8-430.8-69.2L-430.8-69.2Q-430.2-69.7-429.5-69.9Q-428.8-70.2-428.2-70.2L-428.2-70.2Q-428.0-70.2-428.0-70.2Q-428.1-70.2-428.0-70.2Q-428.0-70.2-427.7-70.2Q-427.5-70.1-426.7-69.9L-426.7-69.9Q-424.6-69.4-424.1-67.0L-424.1-67.0Q-424.0-65.9-423.8-65.5L-423.8-65.5ZM-409.4-62.7L-409.4-62.7Q-410.0-61.5-411.2-60.9Q-412.4-60.3-414.2-60.3L-414.2-60.3Q-414.5-60.3-415.4-60.4Q-416.3-60.5-417.2-61.0Q-418.1-61.5-418.8-62.4Q-419.5-63.2-419.5-64.7L-419.5-64.7Q-419.5-66.0-419.1-67.3Q-418.7-68.6-417.7-69.8L-417.7-69.8Q-417.4-70.0-417.1-70.3Q-416.8-70.7-416.6-71.0L-416.6-71.0Q-414.8-72-413.1-72L-413.1-72Q-412.3-72-411.8-71.9Q-411.3-71.8-411.1-71.7Q-410.9-71.6-410.9-71.4Q-410.8-71.3-410.8-71.1L-410.8-71.1Q-410.8-70.4-411.6-70.4L-411.6-70.4L-412.6-70.6Q-413.0-70.7-413.5-70.7L-413.5-70.7Q-414-70.7-414.6-70.5Q-415.2-70.3-415.8-69.8Q-416.3-69.3-416.9-68.6Q-417.4-67.9-417.7-66.8L-417.7-66.8Q-418.1-65.7-418.1-65.0L-418.1-65.0Q-418.1-63.8-417.5-63.1Q-416.9-62.4-416.0-62.0Q-415.2-61.6-414.5-61.5Q-413.8-61.4-413.6-61.4L-413.6-61.4Q-412.8-61.4-412.1-61.9Q-411.4-62.3-410.4-63.3L-410.4-63.3Q-410.3-63.5-410.0-63.5L-410.0-63.5Q-409.8-63.5-409.6-63.2Q-409.4-62.9-409.4-62.7ZM-395.7-61.2L-395.7-61.2Q-396.2-60.8-396.7-60.4Q-397.3-59.9-397.9-59.6Q-398.5-59.3-399.1-59.1Q-399.8-58.9-400.4-58.9L-400.4-58.9Q-400.9-58.9-401.7-59.0Q-402.4-59.1-403.3-59.3L-403.3-59.3Q-403.9-59.7-404.5-60.3Q-405.1-60.8-405.6-61.5Q-406.1-62.2-406.4-63.0Q-406.7-63.8-406.7-64.7L-406.7-64.7Q-406.7-65.1-406.4-67.0L-406.4-67.0Q-406.1-67.5-405.9-68.0Q-405.6-68.4-405.2-68.9Q-404.9-69.3-404.4-69.8Q-403.9-70.2-403.3-70.5L-403.3-70.5Q-402.3-70.8-401.6-70.9Q-400.8-71.0-400.4-71.0L-400.4-71.0Q-399.5-71.0-399.0-70.8Q-398.4-70.5-397.7-69.8L-397.7-69.8L-396.8-68.8L-396.8-68.6Q-396.8-67.5-397.0-66.9Q-397.2-66.3-397.9-65.9Q-398.5-65.5-399.6-65.3Q-400.7-65.0-402.4-64.6L-402.4-64.6L-402.5-64.6Q-402.9-64.6-403.5-64.5Q-404.1-64.3-405.1-64.2L-405.1-64.2Q-404.5-62.2-403.4-61.1Q-402.4-60.1-400.9-60.1L-400.9-60.1Q-399-60.1-396.5-62.0L-396.5-62.0Q-396.4-62.1-396.2-62.1L-396.2-62.1Q-395.6-62.1-395.6-61.5L-395.6-61.5Q-395.6-61.4-395.7-61.2ZM-398.1-68.3L-398.1-68.3Q-399.2-70.0-400.5-70.0L-400.5-70.0Q-401.7-70.0-402.9-69.4Q-404.0-68.9-404.6-68.0L-404.6-68.0L-404.9-67.0Q-405-66.6-405.0-66.2Q-405.1-65.8-405.1-65.4L-405.1-65.4Q-404.3-65.6-403.5-65.6Q-402.8-65.7-402.1-65.8Q-401.4-65.8-400.7-66Q-400.1-66.2-399.5-66.5L-399.5-66.5Q-398.1-67.2-398.1-68.3ZM-368.8-78.0L-368.8-78.0Q-368.9-77.6-369.0-77.3Q-369.2-77.0-369.4-76.7Q-369.6-76.3-369.9-75.8Q-370.2-75.3-370.7-74.5Q-371.2-73.6-371.9-72.3Q-372.6-71.1-373.5-69.2L-373.5-69.2Q-373.5-69.2-373.8-68.6Q-374.0-68.0-374.4-67.2Q-374.7-66.5-375.0-65.8Q-375.4-65.2-375.5-65.1L-375.5-65.1Q-375.9-64.2-376.6-62.8Q-377.4-61.4-378.3-59.4L-378.3-59.4Q-378.4-59.1-378.6-58.8Q-378.8-58.5-378.9-58.2Q-379.1-58.0-379.3-57.8Q-379.5-57.6-379.7-57.6L-379.7-57.6Q-380.1-57.6-380.2-58.0L-380.2-58.0Q-379.9-59.9-377.5-63.8L-377.5-63.8Q-377.1-64.5-376.7-65.2Q-376.4-65.8-376.1-66.5Q-375.8-67.1-375.4-67.9Q-375.0-68.7-374.6-69.8L-374.6-69.8Q-374.3-70.3-373.9-70.9Q-373.6-71.4-373.6-71.5L-373.6-71.5Q-373.6-72.1-373.0-73.2L-373.0-73.2L-371.7-75.3L-370.9-77.0Q-370.6-77.5-370.2-78.1Q-369.8-78.6-369.4-78.6L-369.4-78.6Q-368.9-78.6-368.8-78.0ZM-341.9-60.6L-341.5-60.6Q-341.1-60.4-341.1-60.0L-341.1-60.0Q-341.1-59.5-341.6-59.3Q-342.0-59.2-343.0-59.2L-343.0-59.2Q-343.3-59.2-343.6-59.2Q-344.0-59.2-344.3-59.2L-344.3-59.2Q-344.7-59.2-345.0-59.2Q-345.2-59.2-345.4-59.2L-345.4-59.2Q-345.5-59.2-346.3-59.2Q-347.1-59.3-348.6-59.4L-348.6-59.4Q-349.7-59.3-350.4-59.3L-350.4-59.3Q-351.4-59.3-351.7-59.5L-351.7-59.5Q-351.9-60.5-352.0-61.5Q-352.1-62.4-352.1-63.3L-352.1-63.3Q-352.1-64.9-351.9-66.1Q-351.8-67.3-351.8-68.2L-351.8-68.2Q-351.8-69.2-351.9-69.7L-351.9-69.7Q-351.8-71.1-351.8-71.8Q-351.8-72.6-351.8-72.8L-351.8-72.8Q-351.6-75.1-351.1-76.0L-351.1-76.0Q-351.1-76.0-350.7-76.1Q-350.4-76.2-349.9-76.3Q-349.5-76.4-349.0-76.5Q-348.4-76.6-348.0-76.7Q-347.6-76.7-347.4-76.8Q-347.1-76.8-347.2-76.8L-347.2-76.8Q-347.0-76.8-346.3-76.9Q-345.7-77.0-345.0-77.0Q-344.3-77.1-343.7-77.1Q-343.2-77.2-343.2-77.2L-343.2-77.2Q-343.2-77.2-343.1-77.2Q-343.1-77.2-343.1-77.2L-343.1-77.2Q-342.8-77.2-342.8-76.6L-342.8-76.6Q-342.8-76.3-342.8-76.2Q-342.9-76.0-343.1-75.9Q-343.3-75.8-343.7-75.7Q-344.1-75.7-344.8-75.6L-344.8-75.6Q-345.6-75.6-346.1-75.5Q-346.6-75.5-346.8-75.5L-346.8-75.5Q-347.8-75.5-349.5-74.9L-349.5-74.9Q-349.7-74.7-349.8-74.2Q-350.0-73.7-350.1-73.1Q-350.3-72.5-350.3-71.9Q-350.4-71.3-350.4-70.9L-350.4-70.9Q-350.4-70.0-350.3-69.6Q-350.3-69.1-350.3-69.1L-350.3-69.1Q-348.9-69.1-348.0-69.2Q-347.1-69.4-346.5-69.4L-346.5-69.4Q-346.2-69.4-345.8-69.3Q-345.4-69.3-345.0-69.3Q-344.6-69.3-344.3-69.3Q-343.9-69.3-343.8-69.3L-343.8-69.3Q-343.5-69.3-343.5-68.8L-343.5-68.8Q-343.5-68.5-343.6-68.4Q-343.7-68.3-344.0-68.2Q-344.4-68.1-345.0-68.1Q-345.5-68.0-346.4-68.0L-346.4-68.0Q-347.1-68.0-347.5-68.0L-347.5-68.0Q-347.6-68.0-347.9-68.0Q-348.1-68.0-348.3-68.0L-348.3-68.0Q-348.7-68.0-349.1-68.0Q-349.5-68.0-350.0-67.9L-350.0-67.9Q-350.4-67.5-350.6-64.2L-350.6-64.2L-350.6-63.6Q-350.6-62.5-350.7-61.0L-350.7-61.0Q-350.3-60.9-349.6-60.8Q-348.8-60.7-347.9-60.7Q-347.1-60.6-346.4-60.5Q-345.7-60.5-345.5-60.5L-345.5-60.5Q-345.5-60.5-345.1-60.5Q-344.6-60.5-343.8-60.6L-343.8-60.6Q-343.2-60.6-342.7-60.6Q-342.3-60.6-341.9-60.6L-341.9-60.6ZM-330.8-70.3L-330.8-70.3L-332.5-70.1Q-332.6-70.1-332.8-70.1Q-333.1-70.0-333.4-70.0Q-333.7-70.0-334.1-70.0Q-334.4-69.9-334.8-69.9L-334.8-69.9Q-334.8-69.3-334.7-68.4Q-334.6-67.6-334.5-66.7Q-334.4-65.8-334.3-64.9Q-334.3-64.1-334.2-63.6L-334.2-63.6Q-334.2-63.3-334.2-63.0Q-334.2-62.7-334.2-62.3L-334.2-62.3Q-334.2-61.5-334.1-60.3L-334.1-60.3Q-334.5-59.9-334.9-59.9L-334.9-59.9Q-335.3-59.9-335.4-60.2L-335.4-60.2Q-335.4-60.5-335.4-60.9Q-335.4-61.3-335.4-61.7L-335.4-61.7Q-335.4-62.2-335.4-62.7Q-335.4-63.2-335.4-63.8L-335.4-63.8L-335.4-64.0Q-335.4-64.9-335.8-66.5L-335.8-66.5L-336.1-69.7Q-336.4-69.7-337.0-69.7Q-337.5-69.6-338.3-69.5L-338.3-69.5L-338.4-69.5Q-338.7-69.5-339-69.5Q-339.3-69.4-339.3-69.4L-339.3-69.4Q-339.7-69.5-339.7-70.0L-339.7-70.0Q-339.7-70.4-339.3-70.5L-339.3-70.5L-339.4-70.5Q-339.2-70.5-338.9-70.5L-338.9-70.5Q-338.7-70.6-338.4-70.6Q-338.1-70.6-337.7-70.7L-337.7-70.7Q-337.5-70.7-337.2-70.7L-337.2-70.7Q-337.0-70.8-336.8-70.8Q-336.5-70.8-336.3-70.8L-336.3-70.8L-336.1-70.8L-336.4-74.4Q-336.4-75.0-336.1-75.6Q-335.9-76.3-335.4-77.2L-335.4-77.2Q-335.1-77.4-334.9-77.5Q-334.6-77.7-334.2-77.8Q-333.9-77.9-333.3-78.1Q-332.7-78.2-331.8-78.3L-331.8-78.3Q-331.5-78.3-331.3-78.2Q-331.2-78.1-331.2-77.7L-331.2-77.7Q-331.2-77.4-331.4-77.3Q-331.5-77.2-331.9-77.1Q-332.2-77.0-332.7-76.9Q-333.2-76.8-333.9-76.6L-333.9-76.6Q-334.6-76.3-334.8-75.8Q-334.9-75.2-335.1-74.7L-335.1-74.7Q-335.1-74.6-335.1-74.4Q-335.1-74.1-335.1-73.8Q-335.1-73.5-335.1-73.2Q-335.0-73.0-335.0-72.8L-335.0-72.8L-335.0-72.7Q-335.0-72.4-335.0-72.0Q-334.9-71.5-334.8-71.0L-334.8-71.0Q-333.9-71.0-333.4-71.1Q-332.9-71.1-332.6-71.2Q-332.3-71.2-332.1-71.3Q-332.0-71.3-331.7-71.3L-331.7-71.3Q-331.4-71.3-331.0-71.2Q-330.6-71.2-330.6-70.7L-330.6-70.7Q-330.6-70.4-330.8-70.3ZM-320.2-70.3L-320.2-70.3L-321.9-70.1Q-322.0-70.1-322.2-70.1Q-322.5-70.0-322.8-70.0Q-323.2-70.0-323.5-70.0Q-323.9-69.9-324.2-69.9L-324.2-69.9Q-324.2-69.3-324.1-68.4Q-324.1-67.6-324.0-66.7Q-323.9-65.8-323.8-64.9Q-323.7-64.1-323.6-63.6L-323.6-63.6Q-323.7-63.3-323.7-63.0Q-323.7-62.7-323.7-62.3L-323.7-62.3Q-323.7-61.5-323.6-60.3L-323.6-60.3Q-323.9-59.9-324.4-59.9L-324.4-59.9Q-324.7-59.9-324.9-60.2L-324.9-60.2Q-324.9-60.5-324.9-60.9Q-324.8-61.3-324.8-61.7L-324.8-61.7Q-324.8-62.2-324.9-62.7Q-324.9-63.2-324.9-63.8L-324.9-63.8L-324.9-64.0Q-324.9-64.9-325.2-66.5L-325.2-66.5L-325.5-69.7Q-325.9-69.7-326.4-69.7Q-327.0-69.6-327.7-69.5L-327.7-69.5L-327.9-69.5Q-328.2-69.5-328.4-69.5Q-328.7-69.4-328.7-69.4L-328.7-69.4Q-329.2-69.5-329.2-70.0L-329.2-70.0Q-329.2-70.4-328.8-70.5L-328.8-70.5L-328.8-70.5Q-328.6-70.5-328.4-70.5L-328.4-70.5Q-328.2-70.6-327.9-70.6Q-327.6-70.6-327.1-70.7L-327.1-70.7Q-326.9-70.7-326.7-70.7L-326.7-70.7Q-326.5-70.8-326.2-70.8Q-325.9-70.8-325.7-70.8L-325.7-70.8L-325.5-70.8L-325.8-74.4Q-325.8-75.0-325.6-75.6Q-325.3-76.3-324.8-77.2L-324.8-77.2Q-324.5-77.4-324.3-77.5Q-324.1-77.7-323.7-77.8Q-323.3-77.9-322.7-78.1Q-322.2-78.2-321.2-78.3L-321.2-78.3Q-320.9-78.3-320.8-78.2Q-320.6-78.1-320.6-77.7L-320.6-77.7Q-320.6-77.4-320.8-77.3Q-321.0-77.2-321.3-77.1Q-321.6-77.0-322.1-76.9Q-322.6-76.8-323.3-76.6L-323.3-76.6Q-324-76.3-324.2-75.8Q-324.4-75.2-324.5-74.7L-324.5-74.7Q-324.5-74.6-324.5-74.4Q-324.5-74.1-324.5-73.8Q-324.5-73.5-324.5-73.2Q-324.5-73.0-324.5-72.8L-324.5-72.8L-324.5-72.7Q-324.5-72.4-324.4-72.0Q-324.4-71.5-324.2-71.0L-324.2-71.0Q-323.3-71.0-322.8-71.1Q-322.3-71.1-322.1-71.2Q-321.8-71.2-321.6-71.3Q-321.4-71.3-321.1-71.3L-321.1-71.3Q-320.9-71.3-320.5-71.2Q-320.0-71.2-320.0-70.7L-320.0-70.7Q-320.0-70.4-320.2-70.3ZM-306.5-61.2L-306.5-61.2Q-306.9-60.8-307.5-60.4Q-308.0-59.9-308.7-59.6Q-309.3-59.3-309.9-59.1Q-310.5-58.9-311.1-58.9L-311.1-58.9Q-311.7-58.9-312.4-59.0Q-313.2-59.1-314.1-59.3L-314.1-59.3Q-314.7-59.7-315.3-60.3Q-315.9-60.8-316.3-61.5Q-316.8-62.2-317.1-63.0Q-317.5-63.8-317.5-64.7L-317.5-64.7Q-317.5-65.1-317.2-67.0L-317.2-67.0Q-316.9-67.5-316.6-68.0Q-316.3-68.4-316.0-68.9Q-315.7-69.3-315.2-69.8Q-314.7-70.2-314.1-70.5L-314.1-70.5Q-313.1-70.8-312.3-70.9Q-311.6-71.0-311.2-71.0L-311.2-71.0Q-310.3-71.0-309.8-70.8Q-309.2-70.5-308.5-69.8L-308.5-69.8L-307.6-68.8L-307.6-68.6Q-307.6-67.5-307.8-66.9Q-308.0-66.3-308.6-65.9Q-309.3-65.5-310.4-65.3Q-311.5-65.0-313.2-64.6L-313.2-64.6L-313.3-64.6Q-313.6-64.6-314.3-64.5Q-314.9-64.3-315.8-64.2L-315.8-64.2Q-315.2-62.2-314.2-61.1Q-313.1-60.1-311.7-60.1L-311.7-60.1Q-309.8-60.1-307.3-62.0L-307.3-62.0Q-307.2-62.1-307.0-62.1L-307.0-62.1Q-306.4-62.1-306.4-61.5L-306.4-61.5Q-306.4-61.4-306.5-61.2ZM-308.9-68.3L-308.9-68.3Q-309.9-70.0-311.3-70.0L-311.3-70.0Q-312.5-70.0-313.6-69.4Q-314.8-68.9-315.4-68.0L-315.4-68.0L-315.7-67.0Q-315.8-66.6-315.8-66.2Q-315.9-65.8-315.9-65.4L-315.9-65.4Q-315.1-65.6-314.3-65.6Q-313.5-65.7-312.8-65.8Q-312.1-65.8-311.5-66Q-310.9-66.2-310.3-66.5L-310.3-66.5Q-308.9-67.2-308.9-68.3ZM-293.1-62.7L-293.1-62.7Q-293.7-61.5-294.9-60.9Q-296.0-60.3-297.8-60.3L-297.8-60.3Q-298.2-60.3-299.0-60.4Q-299.9-60.5-300.8-61.0Q-301.7-61.5-302.4-62.4Q-303.1-63.2-303.1-64.7L-303.1-64.7Q-303.1-66.0-302.7-67.3Q-302.3-68.6-301.3-69.8L-301.3-69.8Q-301.0-70.0-300.7-70.3Q-300.4-70.7-300.2-71.0L-300.2-71.0Q-298.4-72-296.7-72L-296.7-72Q-295.9-72-295.4-71.9Q-295.0-71.8-294.7-71.7Q-294.5-71.6-294.5-71.4Q-294.4-71.3-294.4-71.1L-294.4-71.1Q-294.4-70.4-295.3-70.4L-295.3-70.4L-296.2-70.6Q-296.7-70.7-297.2-70.7L-297.2-70.7Q-297.6-70.7-298.2-70.5Q-298.8-70.3-299.4-69.8Q-300.0-69.3-300.5-68.6Q-301.0-67.9-301.4-66.8L-301.4-66.8Q-301.7-65.7-301.7-65.0L-301.7-65.0Q-301.7-63.8-301.1-63.1Q-300.5-62.4-299.7-62.0Q-298.9-61.6-298.1-61.5Q-297.4-61.4-297.2-61.4L-297.2-61.4Q-296.5-61.4-295.7-61.9Q-295.0-62.3-294-63.3L-294-63.3Q-293.9-63.5-293.7-63.5L-293.7-63.5Q-293.4-63.5-293.2-63.2Q-293.1-62.9-293.1-62.7ZM-282.2-70.8L-282.2-70.8Q-282.1-70.7-282.1-70.5L-282.1-70.5Q-282.1-70.3-282.2-70.1Q-282.2-70.0-282.4-69.9Q-282.7-69.9-283.2-69.9Q-283.7-69.8-284.6-69.8L-284.6-69.8Q-286.1-69.8-286.5-69.5L-286.5-69.5Q-286.5-69.4-286.5-69.2Q-286.5-69.1-286.5-68.9L-286.5-68.9Q-286.5-68.6-286.5-68.2Q-286.5-67.9-286.5-67.5Q-286.6-67.2-286.6-67.0Q-286.6-66.8-286.6-66.8L-286.6-66.8Q-286.6-66.6-286.6-66.5Q-286.6-66.3-286.6-66.2L-286.6-66.2Q-286.6-65.9-286.7-65.4Q-286.7-65.0-286.7-64.3L-286.7-64.3Q-286.7-63.2-286.5-62.5Q-286.4-61.9-285.8-61.5L-285.8-61.5L-284.4-61.0Q-283.9-60.8-283.9-60.5L-283.9-60.5Q-283.9-59.9-284.6-59.9L-284.6-59.9Q-284.7-59.9-285.1-60.0Q-285.4-60.0-285.9-60.2Q-286.3-60.3-286.7-60.5Q-287.0-60.7-287.2-61.0L-287.2-61.0Q-287.6-61.7-287.8-62.5Q-288.0-63.2-288.0-64.0L-288.0-64.0Q-288.0-65.0-287.9-65.4Q-287.9-65.8-287.9-66.1Q-287.8-66.4-287.8-66.7Q-287.8-66.9-287.8-67.5L-287.8-67.5Q-287.8-68.2-287.7-68.7Q-287.7-69.2-287.6-69.5L-287.6-69.5Q-287.9-69.5-288.3-69.4Q-288.8-69.3-289.3-69.3Q-289.8-69.2-290.2-69.1Q-290.7-69.0-290.9-68.9L-290.9-68.9Q-291.6-68.9-291.6-69.5L-291.6-69.5Q-291.6-69.8-291.3-69.9Q-291.0-70.1-290.7-70.2Q-290.4-70.3-290.1-70.3Q-289.8-70.3-289.9-70.3L-289.9-70.3L-289.7-70.3Q-288.9-70.3-287.6-70.8L-287.6-70.8Q-287.5-71.3-287.5-71.7Q-287.5-72.2-287.5-72.8Q-287.4-73.4-287.2-74.2Q-287.1-75.0-286.7-76.2L-286.7-76.2Q-286.6-76.5-286.2-76.5L-286.2-76.5Q-285.8-76.5-285.6-76.0L-285.6-76.0Q-285.6-76.0-285.7-75.6Q-285.8-75.2-285.9-74.8Q-286.0-74.3-286.1-73.9Q-286.2-73.5-286.2-73.4L-286.2-73.4Q-286.2-72.7-286.2-72.0Q-286.3-71.4-286.3-70.8L-286.3-70.8Q-286.2-70.8-285.6-70.8Q-285.1-70.9-284.5-70.9L-284.5-70.9Q-284.3-70.9-284.3-70.9Q-284.2-70.9-284.2-70.9L-284.2-70.9Q-283.9-70.9-283.6-70.9Q-283.4-71.0-283.2-71.0L-283.2-71.0Q-282.5-71.0-282.2-70.8ZM-276.1-73.9L-276.1-73.9Q-276.1-73.8-276.1-73.6L-276.1-73.6Q-276.1-73.1-276.3-72.9Q-276.6-72.6-277.4-72.5L-277.4-72.5Q-277.7-72.8-277.9-73.0Q-278.1-73.3-278.1-73.6L-278.1-73.6Q-278.1-73.8-277.7-74.5L-277.7-74.5Q-277.2-74.5-276.9-74.5Q-276.6-74.5-276.5-74.4Q-276.3-74.3-276.3-74.2Q-276.2-74.1-276.1-73.9ZM-277.0-69.2L-277.0-69.2L-277.0-69.1Q-277.0-68.8-277.1-68.1Q-277.2-67.5-277.4-66.6L-277.4-66.6Q-277.4-66.3-277.4-66.2L-277.4-66.2Q-277.4-66.0-277.4-65.8Q-277.5-65.5-277.5-65.2Q-277.6-64.9-277.6-64.5Q-277.7-64.2-277.7-64.0L-277.7-64.0Q-277.7-63.9-277.7-63.8Q-277.6-63.6-277.6-63.5L-277.6-63.5Q-277.6-63.0-277.7-62.4Q-277.8-61.9-277.8-61.7L-277.8-61.7Q-277.8-61.6-277.8-61.4Q-277.8-61.2-277.7-61.0L-277.7-61.0Q-277.9-60.5-278.4-60.5L-278.4-60.5Q-278.9-60.5-279.1-61.1Q-279.2-61.7-279.2-62.4L-279.2-62.4Q-279.2-63.1-279.1-63.8Q-278.9-64.5-278.8-65.4L-278.8-65.4Q-278.8-66.1-278.8-66.6Q-278.7-67.0-278.7-67.4Q-278.6-67.8-278.5-68.2Q-278.4-68.5-278.3-69.2L-278.3-69.2Q-278.1-69.4-277.7-69.4L-277.7-69.4Q-277.3-69.4-277.0-69.2ZM-261.4-70.9L-261.4-70.9Q-261.4-70.6-261.9-69.4Q-262.4-68.3-263.3-66.6L-263.3-66.6Q-263.7-65.9-263.9-65.5Q-264.1-65.1-264.2-64.8Q-264.3-64.4-264.4-64.2Q-264.5-64.0-264.6-63.7L-264.6-63.7Q-264.9-63.2-265.1-62.8Q-265.4-62.4-265.6-62.1L-265.6-62.1Q-265.7-61.8-265.9-61.5Q-266.1-61.1-266.4-60.8Q-266.7-60.5-267.1-60.2Q-267.5-60.0-267.9-60.0L-267.9-60.0Q-268.8-60.0-269.3-61.4L-269.3-61.4Q-269.7-61.8-270.0-62.4Q-270.4-63.1-270.6-63.7Q-270.9-64.3-271.1-64.8Q-271.2-65.2-271.3-65.3L-271.3-65.3Q-271.4-65.8-271.5-66.2Q-271.6-66.7-271.6-67.1L-271.6-67.1L-271.6-67.3Q-272.3-69.3-272.3-70.3L-272.3-70.3Q-272.0-70.6-271.5-70.6L-271.5-70.6Q-271.3-70.6-271.2-70.4Q-271.0-70.2-270.9-69.9Q-270.8-69.6-270.8-69.2Q-270.7-68.8-270.6-68.5L-270.6-68.5Q-270.2-65.9-269.7-65.1L-269.7-65.1Q-269.5-64.0-268.9-63.2L-268.9-63.2L-267.8-61.4Q-265.9-63.3-265.5-64.9L-265.5-64.9Q-265.1-65.6-264.9-66.1Q-264.8-66.6-264.5-67.2Q-264.3-67.8-263.8-68.8Q-263.4-69.7-262.4-71.3L-262.4-71.3Q-262.3-71.5-262.1-71.5L-262.1-71.5Q-261.8-71.5-261.6-71.3Q-261.4-71.1-261.4-70.9ZM-247.6-61.2L-247.6-61.2Q-248.0-60.8-248.6-60.4Q-249.2-59.9-249.8-59.6Q-250.4-59.3-251.0-59.1Q-251.6-58.9-252.2-58.9L-252.2-58.9Q-252.8-58.9-253.5-59.0Q-254.3-59.1-255.2-59.3L-255.2-59.3Q-255.8-59.7-256.4-60.3Q-257.0-60.8-257.5-61.5Q-257.9-62.2-258.3-63.0Q-258.6-63.8-258.6-64.7L-258.6-64.7Q-258.6-65.1-258.3-67.0L-258.3-67.0Q-258.0-67.5-257.7-68.0Q-257.5-68.4-257.1-68.9Q-256.8-69.3-256.3-69.8Q-255.8-70.2-255.2-70.5L-255.2-70.5Q-254.2-70.8-253.5-70.9Q-252.7-71.0-252.3-71.0L-252.3-71.0Q-251.4-71.0-250.9-70.8Q-250.3-70.5-249.6-69.8L-249.6-69.8L-248.7-68.8L-248.7-68.6Q-248.7-67.5-248.9-66.9Q-249.1-66.3-249.8-65.9Q-250.4-65.5-251.5-65.3Q-252.6-65.0-254.3-64.6L-254.3-64.6L-254.4-64.6Q-254.8-64.6-255.4-64.5Q-256.0-64.3-256.9-64.2L-256.9-64.2Q-256.4-62.2-255.3-61.1Q-254.3-60.1-252.8-60.1L-252.8-60.1Q-250.9-60.1-248.4-62.0L-248.4-62.0Q-248.3-62.1-248.1-62.1L-248.1-62.1Q-247.5-62.1-247.5-61.5L-247.5-61.5Q-247.5-61.4-247.6-61.2ZM-250.0-68.3L-250.0-68.3Q-251.0-70.0-252.4-70.0L-252.4-70.0Q-253.6-70.0-254.8-69.4Q-255.9-68.9-256.5-68.0L-256.5-68.0L-256.8-67.0Q-256.9-66.6-256.9-66.2Q-257.0-65.8-257.0-65.4L-257.0-65.4Q-256.2-65.6-255.4-65.6Q-254.6-65.7-253.9-65.8Q-253.3-65.8-252.6-66Q-252-66.2-251.4-66.5L-251.4-66.5Q-250.0-67.2-250.0-68.3ZM-217.9-65.1L-217.9-65.1Q-217.9-64.7-218.1-64.0Q-218.4-63.3-219.0-62.6Q-219.6-61.9-220.6-61.2Q-221.6-60.5-223.2-59.9L-223.2-59.9Q-224.1-59.6-225.2-59.3Q-226.3-59.0-227.7-58.6L-227.7-58.6L-228.9-58.5L-229.2-58.5Q-229.8-58.5-230.1-58.6L-230.1-58.6Q-230.3-59.2-230.3-59.7Q-230.4-60.2-230.4-60.6L-230.4-60.6Q-230.4-60.8-230.4-61.0Q-230.3-61.2-230.3-61.4L-230.3-61.4Q-230.3-61.5-230.3-61.7Q-230.3-61.9-230.3-62.3L-230.3-62.3Q-230.3-63.2-230.3-63.9Q-230.3-64.6-230.2-65.2Q-230.1-65.8-230.1-66.3Q-230.0-66.8-230.0-67.4L-230.0-67.4Q-230.0-67.9-230.1-68.3Q-230.1-68.8-230.1-69.3L-230.1-69.3Q-229.9-71.2-229.7-74.0L-229.7-74.0Q-229.8-74.3-229.9-74.7Q-229.9-75.1-230.1-75.6L-230.1-75.6L-230.4-76.0Q-230.6-76.2-230.6-76.3L-230.6-76.3Q-230.6-76.5-230.4-76.7Q-230.2-76.8-229.9-76.9Q-229.6-77.0-229.3-77.1Q-228.9-77.2-228.6-77.2L-228.6-77.2Q-227.1-77.9-225.5-77.9L-225.5-77.9Q-225.4-77.9-225.1-77.9Q-224.8-77.9-224.4-77.9Q-224.0-77.8-223.6-77.6Q-223.2-77.5-222.7-77.1L-222.7-77.1L-221.6-76.2L-221.1-75.4Q-220.9-74.9-220.9-74.4L-220.9-74.4Q-220.9-73.6-221.3-72.8Q-221.8-72.1-222.8-71.0L-222.8-71.0Q-219.5-69.9-219.0-69.3L-219.0-69.3Q-218.6-68.8-218.3-67.7Q-218.0-66.5-217.9-65.1ZM-222.4-75.1L-222.4-75.1Q-222.4-75.3-222.7-75.6Q-222.9-75.9-223.2-76.2Q-223.6-76.5-224.1-76.7Q-224.6-76.9-225.2-76.9L-225.2-76.9Q-225.7-76.9-226.1-76.8Q-226.6-76.8-227.1-76.7Q-227.5-76.5-227.8-76.4Q-228.2-76.2-228.3-76.0L-228.3-76.0Q-228.5-75.5-228.6-74.5Q-228.7-73.4-228.7-71.5L-228.7-71.5Q-228.7-71.0-228.6-70.7Q-228.5-70.3-228.4-70.3L-228.4-70.3Q-227.2-70.5-226.5-70.6Q-225.9-70.7-225.5-70.8Q-225.1-71.0-224.8-71.2Q-224.6-71.4-224.1-71.8L-224.1-71.8Q-222.3-72.7-222.3-74.2L-222.3-74.2Q-222.3-74.6-222.4-75.1ZM-219.4-64.2L-219.4-64.2Q-219.2-64.7-219.2-65.3L-219.2-65.3Q-219.2-66.4-219.5-67.1Q-219.8-67.9-220.3-68.4Q-220.8-68.9-221.4-69.3Q-222.1-69.6-222.8-69.8L-222.8-69.8Q-223.3-69.9-223.7-70.0Q-224.1-70.1-224.3-70.0L-224.3-70.0Q-224.6-70.0-225.1-69.9Q-225.7-69.8-226.3-69.6Q-227.0-69.4-227.7-69.3Q-228.3-69.1-228.8-69.1L-228.8-69.1L-228.8-68.2Q-228.8-67.0-228.9-65.7Q-229.1-64.3-229.1-62.7L-229.1-62.7Q-229.1-62.2-229.1-61.7Q-229.1-61.2-229.1-60.8L-229.1-60.8Q-229.1-60.6-229.1-60.4Q-229.1-60.1-229.1-60L-229.1-60Q-228.5-59.9-228.0-59.9L-228.0-59.9Q-227.5-59.9-226.7-60.1Q-225.9-60.3-225.1-60.5Q-224.3-60.7-223.8-60.9Q-223.2-61.1-223.1-61.1L-223.1-61.1Q-222.6-61.3-222.0-61.7Q-221.4-62.1-220.9-62.5Q-220.3-63.0-220.0-63.4Q-219.6-63.8-219.4-64.2ZM-203.0-62.4L-203.0-62.4Q-202.7-62.2-202.7-62.0L-202.7-62.0Q-202.7-61.7-203.0-61.5Q-203.3-61.2-203.6-61.2L-203.6-61.2Q-204.1-61.4-204.3-61.7Q-204.6-62.0-204.9-62.3L-204.9-62.3Q-205.2-62.6-205.6-63.5Q-205.9-64.3-206.2-65.7L-206.2-65.7Q-206.4-65.1-206.7-64.2Q-207-63.4-207.5-62.5Q-208.0-61.7-208.7-61.1Q-209.5-60.5-210.6-60.5L-210.6-60.5Q-211.1-60.5-211.7-60.6Q-212.2-60.8-212.6-61.1Q-212.9-61.3-213.2-61.5Q-213.4-61.7-213.4-61.7L-213.4-61.7Q-213.9-62.2-214.2-62.8Q-214.4-63.5-214.4-64.3L-214.4-64.3Q-214.4-65.0-214.2-65.7Q-214.0-66.5-213.6-67.3Q-213.2-68.2-212.7-68.9Q-212.2-69.7-211.5-70.2L-211.5-70.2Q-209.1-71.1-208.2-71.1L-208.2-71.1Q-207.6-71.9-207.1-71.9L-207.1-71.9Q-206.9-71.9-206.7-71.4Q-206.4-71.0-206.2-70.3Q-206.0-69.6-205.9-68.8Q-205.7-68.0-205.6-67.3L-205.6-67.3Q-205.6-67.1-205.5-66.9Q-205.4-66.6-205.4-66.3Q-205.3-66.0-205.3-65.8Q-205.2-65.5-205.2-65.5L-205.2-65.5Q-204.7-63.5-203.0-62.4ZM-206.9-67.1L-206.9-67.1Q-206.9-67.4-207.1-68.2Q-207.3-68.9-207.6-70.2L-207.6-70.2Q-208.2-70.0-208.8-70.0Q-209.3-70.0-209.9-69.8Q-210.5-69.6-211.1-69.0Q-211.7-68.5-212.4-67.3L-212.4-67.3Q-213.2-65.9-213.2-64.1L-213.2-64.1Q-213-63.6-212.8-63.2Q-212.6-62.9-212.3-62.6Q-212.0-62.3-211.6-62.0Q-211.2-61.8-210.6-61.5L-210.6-61.5Q-210.0-61.6-209.6-61.8Q-209.2-62.0-208.9-62.2Q-208.6-62.5-208.3-63.0Q-208.1-63.5-207.7-64.2L-207.7-64.2Q-207.3-65.1-207.1-65.9Q-206.9-66.6-206.9-67.1ZM-196.8-76.2L-196.8-76.2Q-196.8-76.0-196.9-75.6Q-197.0-75.2-197.2-74.7Q-197.3-74.2-197.4-73.7Q-197.6-73.1-197.6-72.7L-197.6-72.7Q-197.6-72.4-197.7-71.9Q-197.8-71.4-197.9-70.9Q-198.0-70.4-198.0-69.9Q-198.1-69.5-198.2-69.2L-198.2-69.2Q-198.2-68.6-198.3-67.8Q-198.3-67.0-198.3-66.3Q-198.3-65.5-198.3-65.0Q-198.3-64.4-198.3-64.2L-198.3-64.2Q-198.3-63.7-198.2-63.0Q-198.1-62.3-197.9-61.6L-197.9-61.6Q-197.7-61.2-197.1-60.6L-197.1-60.6Q-197.5-60.1-198.2-60.1L-198.2-60.1Q-198.7-60.1-198.9-60.5Q-199.2-60.9-199.3-61.7Q-199.4-62.5-199.5-63.7Q-199.5-64.8-199.6-66.3L-199.6-66.3Q-199.5-66.5-199.4-67.0Q-199.4-67.5-199.4-68.0Q-199.4-68.5-199.3-68.9Q-199.3-69.4-199.3-69.6L-199.3-69.6Q-199.3-69.5-199.2-70.0Q-199.1-70.5-199.0-71.2Q-198.9-71.9-198.8-72.6Q-198.7-73.3-198.7-73.7L-198.7-73.7L-198.7-73.9Q-198.6-74.4-198.4-75.0Q-198.3-75.7-198.1-76.5L-198.1-76.5Q-197.9-76.7-197.5-76.7L-197.5-76.7Q-197.1-76.7-196.8-76.2ZM-181.4-62.4L-181.4-62.4Q-181.2-62.2-181.2-62.0L-181.2-62.0Q-181.2-61.7-181.5-61.5Q-181.7-61.2-182.0-61.2L-182.0-61.2Q-182.5-61.4-182.8-61.7Q-183.0-62.0-183.3-62.3L-183.3-62.3Q-183.7-62.6-184.0-63.5Q-184.4-64.3-184.6-65.7L-184.6-65.7Q-184.9-65.1-185.2-64.2Q-185.5-63.4-185.9-62.5Q-186.4-61.7-187.2-61.1Q-187.9-60.5-189.1-60.5L-189.1-60.5Q-189.6-60.5-190.1-60.6Q-190.6-60.8-191.0-61.1Q-191.4-61.3-191.6-61.5Q-191.9-61.7-191.9-61.7L-191.9-61.7Q-192.4-62.2-192.6-62.8Q-192.9-63.5-192.9-64.3L-192.9-64.3Q-192.9-65.0-192.7-65.7Q-192.5-66.5-192.1-67.3Q-191.7-68.2-191.2-68.9Q-190.6-69.7-189.9-70.2L-189.9-70.2Q-187.5-71.1-186.7-71.1L-186.7-71.1Q-186.0-71.9-185.6-71.9L-185.6-71.9Q-185.3-71.9-185.1-71.4Q-184.9-71.0-184.7-70.3Q-184.5-69.6-184.3-68.8Q-184.2-68.0-184.1-67.3L-184.1-67.3Q-184.0-67.1-184.0-66.9Q-183.9-66.6-183.8-66.3Q-183.8-66.0-183.7-65.8Q-183.7-65.5-183.6-65.5L-183.6-65.5Q-183.2-63.5-181.4-62.4ZM-185.3-67.1L-185.3-67.1Q-185.4-67.4-185.6-68.2Q-185.7-68.9-186.0-70.2L-186.0-70.2Q-186.6-70.0-187.2-70.0Q-187.8-70.0-188.4-69.8Q-189.0-69.6-189.6-69.0Q-190.2-68.5-190.8-67.3L-190.8-67.3Q-191.6-65.9-191.6-64.1L-191.6-64.1Q-191.5-63.6-191.3-63.2Q-191.1-62.9-190.8-62.6Q-190.5-62.3-190.1-62.0Q-189.7-61.8-189.0-61.5L-189.0-61.5Q-188.4-61.6-188.0-61.8Q-187.7-62.0-187.4-62.2Q-187.1-62.5-186.8-63.0Q-186.5-63.5-186.2-64.2L-186.2-64.2Q-185.7-65.1-185.5-65.9Q-185.3-66.6-185.3-67.1ZM-169.1-65.5L-168.7-63L-168.7-62.8Q-168.7-62.7-168.7-62.3Q-168.7-61.9-168.8-61.4Q-168.8-61.0-169.0-60.6Q-169.2-60.3-169.5-60.3L-169.5-60.3Q-170.1-60.3-170.2-60.8L-170.2-60.8Q-170.2-60.8-170.2-61.4Q-170.2-62.0-170.2-63.3L-170.2-63.3Q-170.2-63.8-170.2-64.1Q-170.2-64.3-170.2-64.6Q-170.3-64.8-170.4-65.3Q-170.5-65.7-170.7-66.8L-170.7-66.8Q-170.9-67.6-171.2-68.1Q-171.5-68.5-171.9-68.7Q-172.3-69.0-172.7-69.0Q-173.1-69.1-173.5-69.1L-173.5-69.1Q-174.6-69.1-175.4-68.4Q-176.1-67.8-176.7-66.0L-176.7-66.0Q-176.7-65.5-176.7-64.9Q-176.8-64.2-176.9-63.4L-176.9-63.4Q-176.9-62.2-176.7-60.3L-176.7-60.3Q-176.8-59.8-177.4-59.8L-177.4-59.8Q-177.7-59.8-177.9-60Q-178.0-60.2-178.1-60.6Q-178.2-61.0-178.2-61.4Q-178.3-61.8-178.3-62.1L-178.3-62.1Q-178.3-62.8-178.1-63.4L-178.1-63.4L-177.8-66.7Q-177.8-67.0-177.7-67.5Q-177.7-67.9-177.5-68.4L-177.5-68.4Q-177.6-69.2-178.1-70.2L-178.1-70.2Q-178.1-70.8-177.4-70.8L-177.4-70.8Q-177.0-70.8-176.6-70.3Q-176.3-69.8-176.0-69.2L-176.0-69.2Q-175.4-69.7-174.7-69.9Q-174.1-70.2-173.4-70.2L-173.4-70.2Q-173.2-70.2-173.2-70.2Q-173.3-70.2-173.2-70.2Q-173.2-70.2-172.9-70.2Q-172.7-70.1-171.9-69.9L-171.9-69.9Q-169.8-69.4-169.4-67.0L-169.4-67.0Q-169.2-65.9-169.1-65.5L-169.1-65.5ZM-154.7-62.7L-154.7-62.7Q-155.3-61.5-156.4-60.9Q-157.6-60.3-159.4-60.3L-159.4-60.3Q-159.8-60.3-160.6-60.4Q-161.5-60.5-162.4-61.0Q-163.3-61.5-164.0-62.4Q-164.7-63.2-164.7-64.7L-164.7-64.7Q-164.7-66.0-164.3-67.3Q-163.9-68.6-162.9-69.8L-162.9-69.8Q-162.6-70.0-162.3-70.3Q-162.0-70.7-161.8-71.0L-161.8-71.0Q-160.0-72-158.3-72L-158.3-72Q-157.5-72-157.0-71.9Q-156.5-71.8-156.3-71.7Q-156.1-71.6-156.1-71.4Q-156.0-71.3-156.0-71.1L-156.0-71.1Q-156.0-70.4-156.8-70.4L-156.8-70.4L-157.8-70.6Q-158.3-70.7-158.7-70.7L-158.7-70.7Q-159.2-70.7-159.8-70.5Q-160.4-70.3-161.0-69.8Q-161.6-69.3-162.1-68.6Q-162.6-67.9-162.9-66.8L-162.9-66.8Q-163.3-65.7-163.3-65.0L-163.3-65.0Q-163.3-63.8-162.7-63.1Q-162.1-62.4-161.3-62.0Q-160.4-61.6-159.7-61.5Q-159.0-61.4-158.8-61.4L-158.8-61.4Q-158.0-61.4-157.3-61.9Q-156.6-62.3-155.6-63.3L-155.6-63.3Q-155.5-63.5-155.3-63.5L-155.3-63.5Q-155.0-63.5-154.8-63.2Q-154.7-62.9-154.7-62.7ZM-140.9-61.2L-140.9-61.2Q-141.4-60.8-141.9-60.4Q-142.5-59.9-143.1-59.6Q-143.7-59.3-144.3-59.1Q-145.0-58.9-145.6-58.9L-145.6-58.9Q-146.1-58.9-146.9-59.0Q-147.6-59.1-148.5-59.3L-148.5-59.3Q-149.1-59.7-149.7-60.3Q-150.3-60.8-150.8-61.5Q-151.3-62.2-151.6-63.0Q-151.9-63.8-151.9-64.7L-151.9-64.7Q-151.9-65.1-151.6-67.0L-151.6-67.0Q-151.4-67.5-151.1-68.0Q-150.8-68.4-150.4-68.9Q-150.1-69.3-149.6-69.8Q-149.2-70.2-148.5-70.5L-148.5-70.5Q-147.5-70.8-146.8-70.9Q-146.0-71.0-145.6-71.0L-145.6-71.0Q-144.8-71.0-144.2-70.8Q-143.6-70.5-142.9-69.8L-142.9-69.8L-142.0-68.8L-142.0-68.6Q-142.0-67.5-142.2-66.9Q-142.4-66.3-143.1-65.9Q-143.7-65.5-144.8-65.3Q-145.9-65.0-147.6-64.6L-147.6-64.6L-147.7-64.6Q-148.1-64.6-148.7-64.5Q-149.3-64.3-150.3-64.2L-150.3-64.2Q-149.7-62.2-148.6-61.1Q-147.6-60.1-146.2-60.1L-146.2-60.1Q-144.2-60.1-141.7-62.0L-141.7-62.0Q-141.6-62.1-141.4-62.1L-141.4-62.1Q-140.9-62.1-140.9-61.5L-140.9-61.5Q-140.9-61.4-140.9-61.2ZM-143.3-68.3L-143.3-68.3Q-144.4-70.0-145.7-70.0L-145.7-70.0Q-146.9-70.0-148.1-69.4Q-149.2-68.9-149.8-68.0L-149.8-68.0L-150.1-67.0Q-150.2-66.6-150.3-66.2Q-150.3-65.8-150.3-65.4L-150.3-65.4Q-149.5-65.6-148.7-65.6Q-148.0-65.7-147.3-65.8Q-146.6-65.8-146.0-66Q-145.3-66.2-144.7-66.5L-144.7-66.5Q-143.3-67.2-143.3-68.3ZM-117.0-57.9L-117.0-57.9Q-117.0-57.8-117.0-57.7L-117.0-57.7Q-117.0-57.1-117.6-57.1L-117.6-57.1Q-117.8-57.1-118.1-57.3Q-118.4-57.5-118.7-57.8Q-119.0-58.1-119.3-58.4Q-119.5-58.7-119.7-58.9L-119.7-58.9Q-120.8-60.3-121.0-61.6L-121.0-61.6Q-121.7-62.1-122.1-63.2Q-122.5-64.2-122.6-65.5Q-122.8-66.7-122.9-67.9Q-122.9-69.1-123.0-69.8L-123.0-69.8Q-122.8-70.8-122.4-72.3Q-122.0-73.8-121.4-75.2Q-120.8-76.7-119.9-77.9Q-119.0-79.1-117.8-79.5L-117.8-79.5Q-117.7-79.5-117.7-79.5Q-117.6-79.5-117.6-79.5L-117.6-79.5Q-117.0-79.5-117.0-78.9L-117.0-78.9Q-117.0-78.8-117.3-78.5Q-117.5-78.2-117.8-77.8Q-118.1-77.4-118.5-77.1Q-118.8-76.7-119.1-76.3L-119.1-76.3Q-119.8-75.1-120.2-74.0Q-120.7-72.9-120.9-71.9Q-121.2-71.0-121.3-70.1Q-121.4-69.3-121.4-68.6L-121.4-68.6Q-121.4-68.5-121.4-67.9Q-121.4-67.2-121.2-66.3Q-121.1-65.4-120.9-64.4Q-120.6-63.4-120.2-62.5L-120.2-62.5L-119.0-60.4Q-119.0-60.4-118.7-60.1Q-118.4-59.8-118.1-59.4Q-117.7-59.0-117.4-58.5Q-117.1-58.1-117.0-57.9ZM-100.3-60.6L-99.9-60.6Q-99.5-60.4-99.5-60.0L-99.5-60.0Q-99.5-59.5-99.9-59.3Q-100.4-59.2-101.3-59.2L-101.3-59.2Q-101.6-59.2-102.0-59.2Q-102.4-59.2-102.7-59.2L-102.7-59.2Q-103.1-59.2-103.3-59.2Q-103.6-59.2-103.8-59.2L-103.8-59.2Q-103.9-59.2-104.7-59.2Q-105.5-59.3-107.0-59.4L-107.0-59.4Q-108.1-59.3-108.8-59.3L-108.8-59.3Q-109.8-59.3-110.1-59.5L-110.1-59.5Q-110.3-60.5-110.3-61.5Q-110.4-62.4-110.4-63.3L-110.4-63.3Q-110.4-64.9-110.3-66.1Q-110.1-67.3-110.1-68.2L-110.1-68.2Q-110.1-69.2-110.3-69.7L-110.3-69.7Q-110.2-71.1-110.2-71.8Q-110.2-72.6-110.1-72.8L-110.1-72.8Q-110.0-75.1-109.5-76.0L-109.5-76.0Q-109.4-76.0-109.1-76.1Q-108.8-76.2-108.3-76.3Q-107.9-76.4-107.3-76.5Q-106.8-76.6-106.4-76.7Q-106.0-76.7-105.7-76.8Q-105.5-76.8-105.5-76.8L-105.5-76.8Q-105.4-76.8-104.7-76.9Q-104.0-77.0-103.3-77.0Q-102.6-77.1-102.1-77.1Q-101.6-77.2-101.6-77.2L-101.6-77.2Q-101.6-77.2-101.5-77.2Q-101.5-77.2-101.5-77.2L-101.5-77.2Q-101.2-77.2-101.2-76.6L-101.2-76.6Q-101.2-76.3-101.2-76.2Q-101.3-76.0-101.4-75.9Q-101.6-75.8-102.0-75.7Q-102.5-75.7-103.2-75.6L-103.2-75.6Q-104.0-75.6-104.4-75.5Q-104.9-75.5-105.2-75.5L-105.2-75.5Q-106.2-75.5-107.9-74.9L-107.9-74.9Q-108.1-74.7-108.2-74.2Q-108.4-73.7-108.5-73.1Q-108.6-72.5-108.7-71.9Q-108.8-71.3-108.8-70.9L-108.8-70.9Q-108.8-70.0-108.7-69.6Q-108.6-69.1-108.6-69.1L-108.6-69.1Q-107.3-69.1-106.4-69.2Q-105.5-69.4-104.9-69.4L-104.9-69.4Q-104.6-69.4-104.2-69.3Q-103.8-69.3-103.4-69.3Q-103.0-69.3-102.7-69.3Q-102.3-69.3-102.2-69.3L-102.2-69.3Q-101.9-69.3-101.9-68.8L-101.9-68.8Q-101.9-68.5-102.0-68.4Q-102.1-68.3-102.4-68.2Q-102.8-68.1-103.3-68.1Q-103.9-68.0-104.8-68.0L-104.8-68.0Q-105.5-68.0-105.8-68.0L-105.8-68.0Q-106.0-68.0-106.2-68.0Q-106.5-68.0-106.7-68.0L-106.7-68.0Q-107.0-68.0-107.5-68.0Q-107.9-68.0-108.4-67.9L-108.4-67.9Q-108.8-67.5-109.0-64.2L-109.0-64.2L-109.0-63.6Q-109.0-62.5-109.1-61.0L-109.1-61.0Q-108.7-60.9-107.9-60.8Q-107.2-60.7-106.3-60.7Q-105.5-60.6-104.8-60.5Q-104.1-60.5-103.9-60.5L-103.9-60.5Q-103.9-60.5-103.5-60.5Q-103.0-60.5-102.2-60.6L-102.2-60.6Q-101.6-60.6-101.1-60.6Q-100.7-60.6-100.3-60.6L-100.3-60.6ZM-85.1-73.8L-85.1-73.8Q-85.4-73.7-85.6-73.7L-85.6-73.7Q-85.8-73.7-86.2-73.8Q-86.6-73.8-87.0-73.9Q-87.4-73.9-87.7-74.0Q-88.1-74.0-88.1-74.0L-88.1-74.0Q-89.1-74.0-90.9-73.6L-90.9-73.6L-90.5-69.6Q-90.3-68.2-90.3-67.1Q-90.2-66.0-90.2-65.1L-90.2-65.1L-90.2-64.3Q-90.2-63.8-90.1-63.3Q-90.1-62.8-90.1-62.4L-90.1-62.4Q-90.1-61.6-90.2-61.0Q-90.3-60.5-90.4-60.3Q-90.5-60-90.7-59.9Q-90.9-59.8-91.2-59.8L-91.2-59.8Q-91.5-59.8-91.6-60.1Q-91.7-60.3-91.7-60.6Q-91.8-61.0-91.8-61.3Q-91.7-61.7-91.7-61.9L-91.7-61.9Q-91.7-63-91.6-64.0L-91.6-64.0Q-91.6-64.0-91.6-64.9Q-91.7-65.8-91.8-67.6L-91.8-67.6L-91.8-69.9Q-92.0-71.6-92.6-73.4L-92.6-73.4Q-93.2-73.3-93.9-73.3Q-94.6-73.2-95.3-73.1Q-95.9-73.0-96.4-73.0Q-96.8-72.9-97.1-72.8L-97.1-72.8Q-97.7-72.8-97.7-73.4L-97.7-73.4Q-97.7-73.7-97.6-73.9L-97.6-73.9Q-97.2-74.0-96.0-74.2Q-94.7-74.4-92.5-74.8L-92.5-74.8L-90.8-75Q-90.1-75.1-89.3-75.1L-89.3-75.1Q-88.1-75.1-87.0-75.0Q-86.0-74.9-85.1-74.9L-85.1-74.9Q-84.9-74.7-84.9-74.4L-84.9-74.4Q-84.9-74.1-85.1-73.8ZM-68.9-60.0L-68.9-60.0Q-69.2-60.0-69.4-60.1L-69.4-60.1L-69.6-62.2L-69.6-62.5Q-69.6-62.7-69.6-62.9Q-69.7-63.1-69.7-63.4L-69.7-63.4L-69.9-64.8Q-69.8-65.0-69.8-65.3Q-69.8-65.5-69.8-65.8L-69.8-65.8Q-69.8-66.9-70.2-68.0L-70.2-68.0Q-70.6-68.0-71.6-67.8Q-72.6-67.7-74.2-67.7L-74.2-67.7Q-74.8-67.7-75.2-67.7Q-75.5-67.7-75.8-67.8Q-76.1-67.8-76.5-67.9Q-76.8-67.9-77.6-68.0L-77.6-68.0Q-78.4-68.0-78.9-68.0Q-79.4-68.0-79.6-68.0L-79.6-68.0Q-79.7-65.9-79.7-64.6L-79.7-64.6Q-79.7-63.9-79.7-63.5Q-79.7-63.0-79.6-62.7L-79.6-62.7Q-79.3-59.0-79.3-59.0L-79.3-59.0L-79.3-59.0L-79.3-58.9Q-79.3-58.6-79.6-58.6L-79.6-58.6Q-80.1-58.6-80.4-58.9Q-80.6-59.3-80.7-60.1L-80.7-60.1L-80.8-61.9Q-80.9-62.3-80.9-62.7Q-80.9-63.2-80.9-63.9L-80.9-63.9L-80.9-64.7Q-80.9-65.1-80.9-65.4Q-80.9-65.7-81.0-65.9L-81.0-65.9Q-80.9-66.1-80.9-66.4Q-80.9-66.7-80.9-67.1L-80.9-67.1L-80.9-68.1Q-80.9-69.2-80.6-69.8L-80.6-69.8Q-80.6-69.9-80.6-70.0Q-80.6-70.1-80.6-70.2L-80.6-70.2Q-80.6-71.0-80.6-71.6Q-80.5-72.2-80.4-72.7Q-80.3-73.2-80.3-73.7Q-80.2-74.1-80.1-74.8L-80.1-74.8Q-80.0-75.5-79.9-76.0Q-79.7-76.5-79.3-76.5L-79.3-76.5Q-79.2-76.5-79.0-76.4Q-78.8-76.2-78.8-76.0L-78.8-76.0Q-78.8-75.7-78.9-74.8Q-79.0-74.0-79.1-72.5L-79.1-72.5L-79.5-69.5Q-79.1-69.2-78.6-69.1Q-78.0-69-77.5-68.9L-77.5-68.9Q-76.9-68.9-76.2-68.9L-76.2-68.9Q-75.8-68.7-75.0-68.7L-75.0-68.7Q-73.7-68.7-73.0-68.7Q-72.3-68.7-71.9-68.7Q-71.5-68.8-71.1-68.9Q-70.8-69-70.1-69.2L-70.1-69.2Q-70.1-69.4-70.1-69.6Q-70.1-69.8-70.1-70.0L-70.1-70.0Q-70.1-71.1-70.3-72.6L-70.3-72.6L-70.3-73.0Q-70.3-74.1-70.5-74.9L-70.5-74.9Q-70.5-75.3-69.9-75.3L-69.9-75.3Q-69.5-75.3-69.3-74.8Q-69.1-74.3-69.1-73.6L-69.1-73.6L-69.1-73.2Q-69.1-70.8-68.7-69.5L-68.7-69.5Q-68.7-68.7-68.6-67.5Q-68.6-66.4-68.5-64.9L-68.5-64.9Q-68.5-64.7-68.5-64.5Q-68.5-64.2-68.5-64.0L-68.5-64.0Q-68.5-63.7-68.5-63.4Q-68.5-63.1-68.5-62.7L-68.5-62.7Q-68.5-62.5-68.4-62.2Q-68.4-62.0-68.3-61.6Q-68.3-61.4-68.2-61.1Q-68.2-60.8-68.2-60.7L-68.2-60.7Q-68.2-60.0-68.9-60.0ZM-55.5-66.6L-55.5-66.6Q-55.6-66-55.8-65.1Q-56.0-64.3-56.4-63.3Q-56.7-62.3-57.1-61.3Q-57.5-60.2-58.1-59.4Q-58.7-58.5-59.3-57.8Q-60.0-57.1-60.8-56.9L-60.8-56.9Q-60.9-56.9-61.1-56.9L-61.1-56.9Q-61.6-56.9-61.6-57.4L-61.6-57.4Q-61.6-57.6-61.3-57.9Q-61.1-58.3-60.7-58.7Q-60.4-59.1-60.0-59.5Q-59.6-60.0-59.3-60.3L-59.3-60.3Q-58.6-61.6-58.3-62.3Q-57.9-63.0-57.7-63.4Q-57.5-63.8-57.5-64.2Q-57.4-64.6-57.3-65.3L-57.3-65.3Q-57.2-66.0-57.1-66.6Q-57.0-67.2-57.0-67.8L-57.0-67.8Q-57.0-67.9-57.0-68.5Q-57.1-69.1-57.2-70.0Q-57.3-70.9-57.5-71.9Q-57.8-73.0-58.2-73.8L-58.2-73.8L-59.4-76.0Q-59.5-76.0-59.8-76.4Q-60.1-76.8-60.5-77.3Q-60.8-77.8-61.1-78.2Q-61.4-78.6-61.4-78.7L-61.4-78.7Q-61.4-79.2-60.8-79.2L-60.8-79.2Q-60.8-79.2-60.6-79.2L-60.6-79.2Q-57.4-76.9-57.2-74.8L-57.2-74.8Q-56.9-74.6-56.6-74.1Q-56.4-73.7-56.1-73.1Q-55.9-72.5-55.8-72.0Q-55.6-71.4-55.5-70.9L-55.5-70.9Q-55.6-70.5-55.6-70.0Q-55.6-69.6-55.6-69.0L-55.6-69.0Q-55.6-68.5-55.6-67.9Q-55.6-67.3-55.5-66.6Z"/><g class="rough-yAxishysteresis"><path d="M-1.2700254030205667 539.6156390005798 M0.718713972027613 540.7786608280813 C-0.9276429002876718 375.1655115925052, 0.2404038537486498 207.99848356212928, 1.0267028789194126 0.9252454467954374 M0.7399051688286338 540.1087812620669 C2.129919077362982 326.4980519338045, 2.463004183664718 113.11096809438726, 0.7507025080622706 0.16870652849071321" stroke="black" stroke-width="1" fill="none"/></g><path text-anchor="middle" style="font-size: 20px; font-family: MyGaegu; opacity: 0.8;" d=""/></g></svg></svg>