<svg xmlns="http://www.w3.org/2000/svg" width="469" height="480" viewBox="0 0 4690 4800" preserveAspectRatio="xMidYMid meet"><g id="layer101" fill="#343434"><path d="M1029 4391c-185-69-325-209-476-477-73-129-117-262-162-489-29-144-39-270-46-530-7-321-9-1401-2-1412 9-15-9-294-28-428-9-66-26-140-37-165-21-49-29-133-13-138 5-2 13 11 16 27 4 17 20 46 38 66 17 20 31 42 31 50 0 7 11 27 25 43 28 33 45 73 50 117 1 16 14 73 28 125 19 73 28 144 37 302 7 114 10 227 7 251-3 24-2 86 4 138 5 52 14 366 19 699 9 643 11 668 66 923 31 143 49 199 99 297 84 168 193 310 310 406 79 64 219 158 259 173 14 6 26 15 26 21 0 15-105 3-142-16-15-8-29-14-33-14-10 0-5 36 7 48 18 18 2 14-83-17z"/><path d="M1499 3613c-25-32-40-64-34-74 4-5 10-7 15-4 9 5 133-51 342-155 178-89 223-98 348-75 52 10 152 39 221 65 75 29 187 60 276 79 83 17 189 42 237 56 47 14 95 25 106 25 12 0 37 7 57 15 33 14 35 18 29 47-3 17-7 32-9 33-9 8-152-19-164-30-13-13-13-15 1-15 9 0 16-4 16-8 0-8-121-40-220-59-19-3-46-12-60-20-14-7-32-13-40-13-8 0-58-13-111-29-52-16-111-29-130-29-19 0-63-8-99-18-85-22-188-23-232-1-163 82-488 227-509 227-14 0-32-8-40-17z"/><path d="M1972 2884c-66-33-94-70-122-159-16-54-21-92-19-165l2-95-39-3c-66-4-81-11-94-41-12-30-6-131 9-131 4 0 12 14 18 31 11 29 13 30 70 27l58-3 8-50c7-46 31-155 43-197 5-15-2-14-44 7-28 14-63 28-79 31-24 5-31 1-42-23-7-15-17-35-22-44-17-35 12-51 102-56 46-2 89-6 95-8 6-2 19-34 28-72 10-37 33-118 52-179 19-61 34-120 34-132 0-26 15-36 44-28 36 9 38 32 10 88-25 50-97 305-89 318 2 3 39 2 82-3 43-5 105-10 138-11 56-1 60 1 63 23 4 26-12 41-44 41-12 0-27 7-34 16-12 13-72 44-87 44-3 0-3-11 0-25l4-26-71 3-71 3-7 110c-4 61-9 120-11 133-5 27 11 28 110 8 167-34 175-33 166 31-5 30-9 32-82 52-42 11-101 23-132 26-31 4-61 10-66 13-6 4-17 48-24 99-10 72-10 100-1 132 19 62 56 99 115 115 57 16 321 32 354 22 12-4 28-21 37-39l16-32 0 27c0 15-5 30-11 34-6 3-26 30-44 58l-33 53-169 2c-164 2-169 1-221-25z"/><path d="M3230 1777c0-4 13-32 29-61 38-72 60-232 41-292-57-174-145-251-320-280-192-31-310 45-327 209-18 173 58 293 131 206 30-35 74-117 88-164 17-57 35-175 30-200-4-21-1-25 19-25 43 0 46 9 38 96-18 184-139 394-243 420-22 5-28 3-33-14-3-12-16-28-29-37-14-9-37-42-52-73-22-46-27-71-27-132 0-71 3-80 45-154 40-70 54-85 120-128 59-40 88-52 139-60 137-21 293 27 389 120 41 40 53 62 85 153 20 58 37 113 37 123 0 10-10 60-21 110-18 74-28 97-54 123-18 18-40 33-49 33-8 0-20 8-25 18-6 9-11 14-11 9z"/><path d="M1527 1708c-2-7 4-24 14-38 9-14 27-55 39-90 19-55 21-78 16-144-4-44-16-100-28-128-26-60-121-150-180-171-103-35-235-46-294-24-55 21-133 97-165 163-30 60-30 64-23 158 6 92 9 99 38 127 17 16 34 29 38 29 14 0 61-66 95-134 20-39 44-109 54-156 11-46 24-89 29-94 14-14 13 25-1 61-6 15-17 62-25 103-9 48-26 93-46 125-17 28-39 65-49 83-28 53-39 62-80 62-28 0-47-7-69-27-25-24-33-43-51-128-12-60-18-116-14-140 15-106 113-224 218-263 62-23 112-26 192-12 28 5 86 14 130 20 69 9 89 17 142 54 100 68 146 143 176 283 12 56 0 148-25 199-25 51-120 111-131 82z"/><path d="M3589 950c-14-4-77-35-140-68-63-33-161-79-218-101-58-23-128-55-156-71-29-17-64-30-79-30-40 0-149 53-256 124-52 35-106 67-120 71-14 4-37 16-52 26-35 25-43 24-67-10-24-33-26-45-8-38 19 7 79-27 241-136 81-55 166-104 187-109 61-16 107-3 130 37 15 25 36 40 85 59 35 14 69 26 75 26 15 0 399 155 427 173 6 5 12 19 12 33 0 26-13 29-61 14z"/><path d="M604 912c-12-29-12-38-2-41 38-12 235-122 311-173 49-33 117-70 151-83 58-22 70-23 137-14 41 6 126 28 189 50 63 22 160 53 215 70 151 45 276 91 281 104 3 6 0 24-6 39-9 26-13 28-48 21-20-4-44-13-52-20-28-24-95-52-180-75-47-12-130-35-185-51-237-68-313-61-482 48-31 19-81 49-112 65-31 16-75 41-98 54-24 14-56 29-73 34-28 8-31 6-46-28z"/><path d="M3988 802c-8-15-18-39-22-54-8-36-48-81-101-115-55-34-57-60-5-55 45 5 115 35 160 70 19 15 54 40 78 56 52 36 54 39 46 71-8 32-36 47-94 51-41 2-48 0-62-24z"/><path d="M4264 693c-13-14-24-33-24-42 0-9-9-31-20-49-16-26-18-37-10-47 24-29-49-111-87-98-11 4-13-1-13-34 1-35 181 38 217 88 7 8 31 40 55 70 25 32 41 62 39 74-10 61-113 86-157 38z"/></g><g id="layer102" fill="#fefefe"><path d="M0 2400l0-2400 2345 0 2345 0 0 2400 0 2400-2345 0-2345 0 0-2400zm1112 2008c-12-12-17-48-7-48 4 0 18 6 33 14 37 19 142 31 142 16 0-6-12-15-26-21-40-15-180-109-259-173-117-96-226-238-310-406-50-98-68-154-99-297-55-255-57-280-66-923-5-333-14-647-19-699-6-52-7-114-4-138 3-24 0-137-7-251-9-158-18-229-37-302-14-52-27-109-28-125-5-44-22-84-50-117-14-16-25-36-25-43 0-8-14-30-31-50-18-20-34-49-38-66-3-16-11-29-16-27-16 5-8 89 13 138 11 25 28 99 37 165 19 134 37 413 28 428-7 11-5 1091 2 1412 7 260 17 386 46 530 45 227 89 360 162 489 151 268 291 408 476 477 85 31 101 35 83 17zm678-883c124-58 240-113 258-122 44-22 147-21 232 1 36 10 80 18 99 18 19 0 78 13 130 29 53 16 103 29 111 29 8 0 26 6 40 13 14 8 41 17 60 20 99 19 220 51 220 59 0 4-7 8-16 8-14 0-14 2-1 15 12 11 155 38 164 30 2-1 6-16 9-33 6-29 4-33-29-47-20-8-45-15-57-15-11 0-59-11-106-25-48-14-154-39-237-56-89-19-201-50-276-79-69-26-169-55-221-65-125-23-170-14-348 75-209 104-333 160-342 155-16-10-21 14-8 37 25 44 41 58 67 58 15 0 128-47 251-105zm605-671c18-28 38-55 44-58 6-4 11-19 11-34l0-27-16 32c-9 18-25 35-37 39-33 10-297-6-354-22-59-16-96-53-115-115-9-32-9-60 1-132 7-51 18-95 24-99 5-3 35-9 66-13 31-3 90-15 132-26 73-20 77-22 82-52 9-64 1-65-166-31-99 20-115 19-110-8 2-13 7-72 11-133l7-110 71-3 71-3-4 26c-3 14-3 25 0 25 15 0 75-31 87-44 7-9 22-16 34-16 32 0 48-15 44-41-3-22-7-24-63-23-33 1-95 6-138 11-43 5-80 6-82 3-8-13 64-268 89-318 28-56 26-79-10-88-29-8-44 2-44 28 0 12-15 71-34 132-19 61-42 142-52 179-9 38-22 70-28 72-6 2-49 6-95 8-90 5-119 21-102 56 5 9 15 29 22 44 11 24 18 28 42 23 16-3 51-17 79-31 42-21 49-22 44-7-12 42-36 151-43 197l-8 50-58 3c-57 3-59 2-70-27-6-17-14-31-18-31-15 0-21 101-9 131 13 30 28 37 94 41l39 3-2 95c-2 73 3 111 19 165 28 89 56 126 122 159 52 26 57 27 221 25l169-2 33-53zm871-1104c9 0 31-15 49-33 26-26 36-49 54-123 11-50 21-100 21-110 0-10-17-65-37-123-32-91-44-113-85-153-96-93-252-141-389-120-51 8-80 20-139 60-66 43-80 58-120 128-42 74-45 83-45 154 0 61 5 86 27 132 15 31 38 64 52 73 13 9 26 25 29 37 5 17 11 19 33 14 47-12 102-65 146-139 57-98 87-185 97-281 8-87 5-96-38-96-20 0-23 4-19 25 5 25-13 143-30 200-14 47-58 129-88 164-73 87-149-33-131-206 8-79 41-140 94-174 69-43 127-52 233-35 175 29 263 106 320 280 19 60-3 220-41 292-27 50-41 91-18 52 5-10 17-18 25-18zm-1656-69c43-34 58-63 73-142 12-68 4-124-32-221-28-74-68-122-144-174-53-37-73-45-142-54-44-6-102-15-130-20-80-14-130-11-192 12-105 39-203 157-218 263-4 24 2 80 14 140 18 85 26 104 51 128 22 20 41 27 69 27 41 0 52-9 80-62 10-18 32-55 49-83 20-32 37-77 46-125 8-41 19-88 25-103 14-36 15-75 1-61-5 5-18 48-29 94-10 47-34 117-54 156-34 68-81 134-95 134-4 0-21-13-38-29-29-28-32-35-38-127-7-94-7-98 23-158 32-66 110-142 165-163 59-22 191-11 294 24 59 21 154 111 180 171 12 28 24 84 28 128 5 66 3 89-16 144-12 35-30 76-39 90-39 55 3 62 69 11zm2040-745c0-14-6-28-12-33-28-18-412-173-427-173-6 0-40-12-75-26-49-19-70-34-85-59-23-40-69-53-130-37-21 5-106 54-187 109-162 109-222 143-241 136-18-7-16 5 8 38 24 34 32 35 67 10 15-10 38-22 52-26 14-4 68-36 120-71 107-71 216-124 256-124 15 0 50 13 79 30 28 16 98 48 156 71 57 22 155 68 218 101 160 85 201 96 201 54zm-2927-30c23-13 67-38 98-54 31-16 81-46 112-65 169-109 245-116 482-48 55 16 138 39 185 51 85 23 152 51 180 75 8 7 32 16 52 20 35 7 39 5 48-21 6-15 9-33 6-39-5-13-130-59-281-104-55-17-152-48-215-70-63-22-148-44-189-50-67-9-79-8-137 14-34 13-102 50-151 83-76 51-273 161-311 173-10 3-10 12 2 41 15 34 18 36 46 28 17-5 49-20 73-34zm3394-94c20-11 38-55 29-71-3-4-24-21-48-37-24-16-59-41-78-56-45-35-115-65-160-70-52-5-50 21 5 55 53 34 93 79 101 115 4 15 14 39 22 54 14 24 21 26 62 24 25-2 55-8 67-14zm279-117c35-33 32-55-14-114-24-30-48-62-55-70-36-50-216-123-217-88 0 33 2 38 13 34 38-13 111 69 87 98-8 10-6 21 10 47 11 18 20 40 20 49 0 9 11 28 24 42 31 33 97 34 132 2z"/></g></svg>